<svg xmlns="http://www.w3.org/2000/svg" width="50" height="50" viewBox="0 -2.5 50 50" enable-background="new 0 -2.5 50 50"><path fill="#27B67B" d="M43.991 8.287h-37.981c-1.31 0-2.374 1.06-2.374 2.369v23.689c0 1.309 1.063 2.367 2.374 2.367h37.981c1.311 0 2.373-1.061 2.373-2.367v-23.689c0-1.309-1.062-2.369-2.373-2.369zm.791 26.059c0 .438-.354.789-.791.789h-37.981c-.437 0-.792-.352-.792-.789v-15.006h39.562v15.006h.002zm0-16.585h-39.563v-3.158h39.563v3.158zm0-4.737h-39.563v-2.369c0-.438.355-.79.792-.79h37.98c.438 0 .791.352.791.79v2.369zm-20.573 17.372h-15.824v1.58h15.825l-.001-1.58zm-6.33-4.736h-9.494v1.58h9.495l-.001-1.58zm18.968 6.317h3.213c.859 0 1.56-.686 1.56-1.528v-.101c0-.844-.699-1.529-1.56-1.529h-3.213c-.861 0-1.559.687-1.559 1.529v.101c0 .842.697 1.528 1.559 1.528z"/></svg>