<svg class="sub-nav__img" xmlns="http://www.w3.org/2000/svg" viewBox="0 -2.5 50 50" enable-background="new 0 -2.5 50 50"><path d="M5.2 37.465h4.4v1.855c0 .293.246.529.551.529h4.949c.209 0 .398-.113.492-.293l2.323-4.479h19.46c1.668 0 3.025-1.311 3.025-2.918s-1.357-2.916-3.025-2.916h-14.85c-1.062 0-1.926-.834-1.926-1.857s.864-1.856 1.926-1.856h4.949c1.668 0 3.025-1.309 3.025-2.917 0-1.608-1.357-2.917-3.025-2.917h-14.85c-1.061 0-1.925-.833-1.925-1.856s.864-1.856 1.925-1.856h19.46l2.323 4.48c.094.18.283.293.492.293h4.949c.305 0 .551-.237.551-.531v-1.856h4.4c.303 0 .549-.237.549-.53v-4.773c0-.293-.246-.53-.549-.53h-4.4v-1.856c0-.293-.246-.53-.551-.53h-4.948c-.209 0-.398.114-.492.293l-2.323 4.48h-19.46c-1.668 0-3.025 1.309-3.025 2.917 0 1.608 1.357 2.917 3.025 2.917h14.85c1.062 0 1.926.833 1.926 1.856s-.863 1.856-1.926 1.856h-4.949c-1.668 0-3.025 1.309-3.025 2.917 0 1.609 1.357 2.918 3.025 2.918h14.85c1.062 0 1.925.832 1.925 1.855s-.863 1.855-1.925 1.855h-19.46l-2.323-4.479c-.094-.18-.283-.293-.492-.293h-4.951c-.305 0-.551.236-.551.529v1.857h-4.399c-.304 0-.55.236-.55.529v4.773c0 .296.246.534.55.534zm39.05-23.867v3.712h-3.85v-3.712h3.85zm-9.01-2.387h4.06v8.485h-4.06l-2.2-4.243 2.2-4.242zm-24.54 19.094h4.06l2.2 4.242-2.2 4.242h-4.06v-8.484zm-4.95 2.386h3.85v3.711h-3.85v-3.711z"/></svg>