<svg class="sub-nav__img" xmlns="http://www.w3.org/2000/svg" viewBox="0 -2.5 50 50" enable-background="new 0 -2.5 50 50"><path d="M44.021 17.396h-18.494v-3.016c0-.939-.77-1.705-1.717-1.705h-17.832c-.292 0-.528.235-.528.525v18.88c0 .29.236.524.528.524h16.117v1.831l-.002.005.002.005v1.175c0 .94.77 1.705 1.717 1.705h20.21c.293 0 .529-.234.529-.524v-18.881c0-.29-.237-.524-.53-.524zm-18.494 15.865v-12.457h8.456v13.112h-8.588c.085-.202.132-.423.132-.655zm-19.021-1.705v-17.832h17.304c.365 0 .661.294.661.655v.656h-8.982c-.292 0-.528.235-.528.524v14.161c0 .289.236.524.528.524h8.982v1.443c-.202-.085-.425-.132-.658-.133h-17.307000000000002zm17.965-15.472v13.111h-8.454v-13.111h8.454zm0 17.177c0 .361-.296.655-.661.655h-.658v-1.312h.658c.365 0 .661.294.661.657zm19.021 3.015h-19.68c-.364 0-.66-.294-.66-.656 0-.361.296-.655.66-.655h10.698c.293 0 .529-.234.529-.524v-14.161c0-.29-.236-.524-.529-.524h-8.983v-1.311h17.965v17.831zm-30.91-15.996c0 .29.236.524.529.524.292 0 .528-.234.528-.524 0-1.411-1.027-2.587-2.378-2.834v-1.492c0-.29-.236-.524-.528-.524s-.528.234-.528.524v1.492c-1.351.248-2.378 1.423-2.378 2.834s1.027 2.587 2.378 2.834v3.636c-.29-.085-.56-.233-.779-.452-.349-.347-.542-.808-.541-1.297 0-.29-.236-.525-.528-.525-.292 0-.529.234-.529.524 0 .77.301 1.494.85 2.039.422.419.952.689 1.527.794v1.494c0 .29.236.524.528.524s.528-.234.528-.524v-1.494c.575-.104 1.105-.374 1.527-.794.548-.545.851-1.269.851-2.037v-.003c0-.771-.302-1.494-.851-2.039-.422-.419-.953-.689-1.527-.793v-3.637c.761.227 1.321.921 1.321 1.75zm-2.377 1.75c-.761-.227-1.321-.921-1.321-1.75s.56-1.522 1.321-1.75v3.5zm1.837 1.672c.349.347.541.808.541 1.298v.001c0 .489-.192.95-.541 1.297-.221.219-.49.367-.78.453v-3.502c.29.085.559.234.78.453zm26.696 4.133v3.636c-.291-.086-.561-.234-.779-.453-.35-.347-.541-.808-.541-1.297 0-.29-.236-.525-.527-.525h-.002c-.291 0-.527.235-.527.524 0 .771.301 1.494.85 2.04.422.418.951.688 1.527.793v1.298c0 .29.236.524.527.524.293 0 .529-.234.529-.524v-1.298c.574-.104 1.105-.374 1.527-.793.549-.545.85-1.269.85-2.038v-.002c0-.771-.301-1.494-.85-2.039-.422-.419-.953-.689-1.527-.794v-3.637c.76.228 1.32.922 1.32 1.75 0 .29.236.524.529.524.291 0 .527-.234.527-.524 0-1.411-1.027-2.587-2.377-2.834v-1.296c0-.29-.236-.525-.529-.525-.291 0-.527.235-.527.525v1.295c-1.352.248-2.379 1.423-2.379 2.834s1.028 2.588 2.379 2.836zm1.057.134c.289.086.559.234.779.453.35.347.541.808.541 1.298v.001c0 .489-.191.95-.541 1.298-.221.218-.49.367-.779.452v-3.502zm-1.057-4.719v3.5c-.762-.228-1.322-.921-1.322-1.75 0-.828.561-1.522 1.322-1.75z"/></svg>