<svg xmlns="http://www.w3.org/2000/svg" width="50" height="50"><path fill="#27B67B" d="M41.05 21.881h-2.332l-2.537-4.791c-.102-.192-.31-.313-.537-.313h-13.515c-.159 0-.312.06-.425.167l-5.229 4.938h-7.86c-2.566 0-4.654 1.971-4.654 4.395 0 2.423 2.088 4.395 4.654 4.395h2.16c.284 1.449 1.63 2.552 3.246 2.552s2.962-1.103 3.246-2.552h17.834c.284 1.449 1.63 2.552 3.246 2.552 1.628 0 2.982-1.12 3.252-2.585 2.309-.258 4.106-2.114 4.106-4.361 0-2.425-2.089-4.397-4.655-4.397zm-10.211-3.969h4.434l2.103 3.97h-6.536v-3.97zm-16.818 14.177c-1.159 0-2.103-.891-2.103-1.985s.943-1.984 2.103-1.984 2.103.891 2.103 1.984c-.001 1.094-.944 1.985-2.103 1.985zm15.616-2.553h-12.37c-.284-1.449-1.63-2.552-3.246-2.552s-2.962 1.103-3.246 2.552h-2.16c-1.903 0-3.453-1.462-3.453-3.26s1.55-3.261 3.453-3.261h21.022v6.521zm0-7.655h-11.464l4.205-3.97h7.259v3.97zm8.71 10.208c-1.159 0-2.103-.891-2.103-1.985s.943-1.984 2.103-1.984 2.103.891 2.103 1.984c-.001 1.094-.944 1.985-2.103 1.985zm3.239-2.596c-.302-1.428-1.64-2.509-3.239-2.509-1.616 0-2.962 1.103-3.246 2.552h-4.262v-6.521h10.211c1.903 0 3.453 1.463 3.453 3.261 0 1.625-1.268 2.973-2.917 3.217zm-16.754-3.926h2.703c.332 0 .601-.254.601-.567s-.269-.566-.601-.566h-2.703c-.332 0-.601.253-.601.566s.269.567.601.567z"/></svg>