<svg class="sub-nav__img" xmlns="http://www.w3.org/2000/svg" viewBox="0 -2.5 50 50" enable-background="new 0 -2.5 50 50"><path d="M43.81 12.868h-28.339l5.098-3.08c.246-.149.325-.47.176-.717-.148-.247-.47-.327-.717-.177l-5.608 3.388-5.608-3.388c-.248-.15-.568-.07-.717.177-.15.247-.071.568.176.717l5.098 3.08h-7.179c-.289 0-.522.234-.522.522v24.428c0 .289.233.521.522.521h3.004l1.953 2.299c.099.117.245.184.398.184h4.311c.159 0 .312-.074.41-.199l1.802-2.283h13.594l1.953 2.299c.099.117.245.184.398.184h4.311c.159 0 .311-.074.41-.199l1.802-2.283h3.273c.289 0 .522-.232.522-.521v-24.429c.001-.289-.232-.523-.521-.523zm-28.206 26.909h-3.816l-1.221-1.438h6.171l-1.134 1.438zm22.466 0h-3.815l-1.222-1.438h6.172l-1.135 1.438zm5.217-2.482h-36.574v-23.382h36.574v23.382zm-34.746-1.436h23.513c.289 0 .522-.234.522-.523v-19.725c0-.289-.233-.522-.522-.522h-23.513c-.289 0-.522.234-.522.522v19.725c0 .289.233.523.522.523zm.522-19.725h22.468v18.681h-22.468v-18.681zm25.342 19.725h6.923c.289 0 .522-.234.522-.523v-19.725c0-.289-.233-.522-.522-.522h-6.923c-.289 0-.522.234-.522.522v19.725c0 .289.233.523.522.523zm.523-19.725h5.878v1.306h-5.878v-1.306zm0 2.351h5.878v1.306h-5.878v-1.306zm0 2.351h5.878v1.306h-5.878v-1.306zm0 2.352h5.878v11.627h-5.878v-11.627z"/></svg>