<svg xmlns="http://www.w3.org/2000/svg" width="50" height="50"><path fill="#27B67B" d="M46.718 18.433l-14.985-2.996c-.244-1.796-1.785-3.187-3.646-3.187-2.032 0-3.686 1.653-3.686 3.686l.021.392c-.658-.614-1.539-.992-2.508-.992-2.031 0-3.686 1.654-3.686 3.686 0 1.443.836 2.692 2.048 3.296l-17.08 6.169c-.238.084-.396.31-.396.563v8.100000000000001c0 .331.269.6.6.6h43.2c.332 0 .601-.269.601-.6v-2.411h-.085c.05-.087.085-.183.085-.289v-15.429c-.001-.286-.203-.532-.483-.588zm-.718 2.942l-14.229-2.845v-1.862l14.229 2.845v1.862zm-17.914-7.925c1.37 0 2.485 1.115 2.485 2.485s-1.115 2.486-2.485 2.486c-1.371 0-2.486-1.115-2.486-2.486s1.115-2.485 2.486-2.485zm-.601 6.118v.146l-2.202.795c.202-.456.316-.958.316-1.488l-.021-.392c.52.484 1.178.819 1.907.939zm-8.056-.547c0-1.371 1.115-2.485 2.485-2.485 1.371 0 2.486 1.115 2.486 2.485s-1.115 2.486-2.486 2.486c-1.37 0-2.485-1.115-2.485-2.486zm-15.429 10.451l17.314-6.253v5.06c0 .331.269.601.6.601.332 0 .601-.27.601-.601v-5.493l4.971-1.795v4.203c0 .332.269.6.601.6.331 0 .6-.269.6-.6v-4.637l2.531-.914 14.782 2.955v11.252h-42v-4.378zm42 7.078h-42v-1.5h42v1.5z"/></svg>