<svg class="sub-nav__img" xmlns="http://www.w3.org/2000/svg" viewBox="0 -2.5 50 50" enable-background="new 0 -2.5 50 50"><path d="M25 3.73c-11.749 0-21.27 9.521-21.27 21.27 0 11.746 9.521 21.27 21.27 21.27 11.749 0 21.27-9.523 21.27-21.27 0-11.749-9.521-21.27-21.27-21.27zm0 1.772c10.75 0 19.496 8.748 19.496 19.498 0 4.729-1.693 9.071-4.507 12.449-1.944-.811-6.531-2.405-9.372-3.243-.242-.075-.28-.087-.28-1.096 0-.833.342-1.669.677-2.38.361-.771.79-2.067.945-3.231.43-.499 1.018-1.486 1.395-3.367.329-1.658.175-2.261-.043-2.828l-.065-.177c-.083-.388.032-2.408.315-3.975.195-1.073-.049-3.358-1.53-5.25-.934-1.196-2.723-2.663-5.988-2.865l-1.793.003c-3.21.201-5 1.667-5.936 2.863-1.479 1.891-1.725 4.177-1.53 5.25.287 1.567.399 3.586.318 3.966l-.065.186c-.219.567-.375 1.17-.042 2.828.375 1.88.962 2.868 1.395 3.367.152 1.164.581 2.46.945 3.231.264.562.388 1.332.388 2.415 0 1.009-.038 1.021-.265 1.094-2.937.866-7.611 2.558-9.355 3.319-2.867-3.395-4.601-7.778-4.601-12.559 0-10.75 8.748-19.498 19.498-19.498zm-13.612 33.437c1.996-.814 5.976-2.233 8.588-3.007 1.521-.478 1.521-1.755 1.521-2.787 0-.853-.061-2.108-.56-3.17-.34-.729-.732-1.976-.82-2.953-.018-.228-.126-.44-.299-.59-.25-.221-.761-1.025-1.086-2.65-.259-1.283-.149-1.564-.043-1.837l.122-.36c.214-.776-.024-3.332-.281-4.75-.112-.617.028-2.37 1.181-3.842 1.033-1.322 2.599-2.059 4.593-2.186l1.682-.001c2.048.128 3.614.865 4.649 2.187 1.151 1.472 1.292 3.225 1.18 3.842-.257 1.418-.495 3.973-.282 4.75l.123.36c.104.273.214.554-.042 1.837-.326 1.625-.838 2.43-1.088 2.65-.172.149-.279.362-.302.59-.084.978-.475 2.225-.816 2.953-.393.834-.846 1.946-.846 3.135 0 1.028 0 2.31 1.536 2.793 2.5.738 6.498 2.111 8.611 2.94-3.526 3.494-8.372 5.654-13.711 5.654-5.289.001-10.093-2.123-13.61-5.558z"/></svg>