<svg xmlns="http://www.w3.org/2000/svg" width="50" height="50"><path fill="#27B67B" d="M44.006 17.941c0-.289-.229-.523-.514-.523s-.514.234-.514.523c0 .826-.544 1.518-1.284 1.745v-4.098c0-.289-.229-.523-.514-.523s-.514.234-.514.523v4.098c-.74-.227-1.284-.918-1.284-1.745 0-.289-.229-.523-.514-.523s-.514.234-.514.523c0 1.407.999 2.579 2.312 2.826v3.625c-.74-.227-1.284-.919-1.284-1.745 0-.289-.229-.523-.514-.523s-.514.234-.514.523c0 1.407.999 2.579 2.312 2.826v3.625c-.74-.227-1.284-.918-1.284-1.744 0-.289-.229-.523-.514-.523s-.514.234-.514.523c0 1.406.999 2.578 2.312 2.826v10.77h-6.356v-8.367h1.799c.15 0 .294-.066.392-.184s.14-.273.114-.424l-2.312-14.119c-.041-.252-.255-.437-.507-.437-.251 0-.465.185-.506.437l-2.312 14.119c-.024.15.018.307.115.424s.241.184.392.184h1.798v8.367h-6.913v-15.477c1.312-.247 2.312-1.419 2.312-2.826s-.999-2.579-2.312-2.826v-1.384c2.592-.263 4.623-2.496 4.623-5.203 0-2.883-2.305-5.229-5.137-5.229s-5.137 2.346-5.137 5.229c0 2.707 2.031 4.939 4.623 5.203v1.384c-1.313.247-2.312 1.419-2.312 2.826s.998 2.579 2.312 2.826v15.476h-6.913v-6.014h1.798c.158 0 .308-.074.405-.201.097-.127.132-.291.093-.447l-2.312-9.413c-.057-.233-.262-.396-.498-.396-.235 0-.44.164-.498.396l-2.312 9.413c-.039.156-.004.32.093.447.098.127.247.201.405.201h1.798v6.014h-5.758v-13.111c1.953-.258 3.468-1.957 3.468-4.014 0-2.235-1.786-4.053-3.981-4.053s-3.981 1.818-3.981 4.053c0 2.057 1.515 3.756 3.468 4.014v13.111h-4.11c-.284 0-.514.234-.514.523s.229.521.514.521h36.986c.284 0 .514-.232.514-.521s-.229-.523-.514-.523h-1.798v-10.769c1.312-.248 2.312-1.42 2.312-2.826 0-.289-.229-.523-.514-.523s-.514.234-.514.523c0 .826-.544 1.518-1.284 1.744v-3.625c1.312-.247 2.312-1.419 2.312-2.826 0-.289-.229-.523-.514-.523s-.514.234-.514.523c0 .826-.544 1.518-1.284 1.745v-3.625c1.312-.247 2.311-1.419 2.311-2.826zm-32.876 2.876c1.629 0 2.954 1.349 2.954 3.007 0 1.658-1.325 3.006-2.954 3.006s-2.953-1.348-2.953-3.006c0-1.658 1.324-3.007 2.953-3.007zm6.785 6.339l1.653 6.734h-3.307l1.654-6.734zm7.94-6.339c.991 0 1.798.821 1.798 1.83 0 1.009-.807 1.83-1.798 1.83s-1.798-.821-1.798-1.83c.001-1.009.807-1.83 1.798-1.83zm0-11.765c2.266 0 4.109 1.877 4.109 4.183 0 2.307-1.844 4.184-4.109 4.184-2.267 0-4.109-1.877-4.109-4.184 0-2.306 1.843-4.183 4.109-4.183zm7.941 12.07l1.705 10.415h-3.41l1.705-10.415z"/></svg>