<svg class="sub-nav__img" xmlns="http://www.w3.org/2000/svg" viewBox="0 -2.5 50 50" enable-background="new 0 -2.5 50 50"><path d="M6.215 31.93c-2.302 0-4.18 1.871-4.18 4.168 0 2.291 1.878 4.166 4.18 4.166 2.299 0 4.176-1.875 4.176-4.166 0-.988-.35-1.9-.927-2.615l5.185-7.273c.547.266 1.162.414 1.814.414 1.561 0 2.924-.857 3.641-2.133l9.443 3.582c-.117.381-.184.785-.184 1.203 0 2.303 1.877 4.166 4.179 4.166 2.301 0 4.176-1.863 4.176-4.166 0-1.453-.749-2.727-1.879-3.477l6.677-13.006c.403.126.83.192 1.274.192 2.301 0 4.175-1.868 4.175-4.164s-1.874-4.167-4.175-4.167c-2.306 0-4.177 1.87-4.177 4.167 0 1.312.615 2.483 1.563 3.248l-6.743 13.136c-.287-.059-.586-.096-.893-.096-1.333 0-2.523.631-3.285 1.604l-9.667-3.652c.027-.201.046-.398.046-.605 0-2.292-1.871-4.165-4.173-4.165-2.305 0-4.177 1.873-4.177 4.165 0 1.105.438 2.109 1.14 2.855l-5.12 7.188c-.614-.364-1.329-.569-2.089-.569zm34.919-23.109c0-1.462 1.19-2.648 2.656-2.648 1.464 0 2.653 1.187 2.653 2.648s-1.189 2.652-2.653 2.652c-1.466.001-2.656-1.19-2.656-2.652zm-7.592 17.802c1.464 0 2.657 1.189 2.657 2.652 0 1.467-1.193 2.654-2.657 2.654-1.466 0-2.657-1.189-2.657-2.654 0-1.463 1.191-2.652 2.657-2.652zm-17.079-6.817c1.465 0 2.657 1.189 2.657 2.649 0 1.469-1.192 2.654-2.657 2.654-1.467 0-2.656-1.188-2.656-2.654 0-1.46 1.189-2.649 2.656-2.649zm-10.248 18.94c-1.465 0-2.659-1.191-2.659-2.648 0-1.467 1.194-2.656 2.659-2.656 1.462 0 2.655 1.189 2.655 2.656 0 1.457-1.193 2.648-2.655 2.648z"/></svg>