<svg class="sub-nav__img" xmlns="http://www.w3.org/2000/svg" viewBox="0 -2.5 50 50" enable-background="new 0 -2.5 50 50"><path d="M17.575 12.074c-.304 0-.55.246-.55.55v6.188c0 1.557-1.13 2.85-2.612 3.111v-1.74c.715-.234 1.237-.899 1.237-1.692v-5.866c0-.304-.246-.55-.55-.55-.304 0-.55.246-.55.55v5.866c0 .38-.308.688-.688.688-.379 0-.688-.308-.688-.688v-5.866c0-.304-.246-.55-.55-.55s-.55.246-.55.55v5.866c0 .793.522 1.458 1.237 1.692v1.74c-1.482-.262-2.612-1.555-2.612-3.111v-6.188c0-.304-.246-.55-.55-.55-.304 0-.55.246-.55.55v6.188c0 1.712 1.016 3.187 2.475 3.864v15.936c0 .985.802 1.788 1.787 1.788.986 0 1.788-.803 1.788-1.788v-15.936c1.459-.678 2.475-2.152 2.475-3.864v-6.188c.001-.304-.245-.55-.549-.55zm-3.025 26.537c0 .38-.308.688-.688.688-.379 0-.688-.308-.688-.688v-15.598c.225.037.453.062.688.062.235 0 .463-.024.688-.062v15.598zm12.679-28.954c-5.194 2.597-5.253 17.196-5.253 17.816 0 .305.246.551.55.551h1.925v10.587c0 .985.802 1.788 1.787 1.788s1.788-.803 1.788-1.788v-28.462c0-.19-.1-.367-.262-.468-.161-.101-.365-.109-.535-.024zm-.303 28.954c0 .38-.309.688-.688.688-.379 0-.688-.308-.688-.688v-10.587h1.376v10.587zm0-11.687h-3.846c.066-4.056.856-12.941 3.846-15.72v15.72zm9.212-16.225c-2.351 0-4.263 3.084-4.263 6.875 0 2.866 1.102 4.425 2.475 5.094v15.943c0 .985.803 1.788 1.788 1.788s1.788-.803 1.788-1.788v-15.943c1.373-.669 2.475-2.228 2.475-5.094-.001-3.791-1.913-6.875-4.263-6.875zm.687 27.912c0 .38-.309.688-.688.688-.38 0-.688-.308-.688-.688v-15.594c.229.037.458.058.688.058.229 0 .458-.021.688-.058v15.594zm-.687-16.637c-1.98 0-3.163-1.645-3.163-4.399 0-3.077 1.479-5.775 3.163-5.775s3.162 2.698 3.162 5.775c0 2.754-1.183 4.399-3.162 4.399z"/></svg>