<svg xmlns="http://www.w3.org/2000/svg" width="50" height="50"><path fill="#27B67B" d="M41.083 17.617h-25.923l-2.093-8.617h-5.816v1.23h4.846l6.014 24.753c-1.282.373-2.224 1.54-2.224 2.939 0 1.697 1.379 3.076 3.083 3.076 1.703 0 3.084-1.379 3.084-3.076 0-.696-.24-1.331-.63-1.846h8.661c-.391.515-.63 1.149-.63 1.846 0 1.697 1.38 3.076 3.083 3.076 1.704 0 3.085-1.379 3.085-3.076 0-1.7-1.381-3.076-3.084-3.076h-13.192l-.599-2.461h17.317l5.018-14.768zm-20.262 20.307c0 1.018-.831 1.846-1.852 1.846-1.02 0-1.85-.828-1.85-1.846s.831-1.846 1.85-1.846c1.021 0 1.852.828 1.852 1.846zm13.569 0c0 1.018-.83 1.846-1.852 1.846-1.02 0-1.85-.828-1.85-1.846s.83-1.846 1.85-1.846c1.022 0 1.852.828 1.852 1.846zm-15.941-6.768l-2.99-12.309h23.903l-4.182 12.309h-16.731z"/></svg>