<svg class="sub-nav__img" xmlns="http://www.w3.org/2000/svg" viewBox="0 -2.5 50 50" enable-background="new 0 -2.5 50 50"><path d="M27.465 19.333c0 .393.317.709.707.709.389 0 .705-.316.705-.709 0-1.886-1.37-3.467-3.172-3.799v-2.531c0-.387-.314-.701-.705-.701-.389 0-.704.314-.704.701v2.531c-1.803.332-3.173 1.913-3.173 3.799 0 1.895 1.371 3.472 3.173 3.806v4.876c-.386-.117-.746-.314-1.041-.611-.465-.465-.72-1.078-.72-1.736 0-.389-.316-.707-.704-.707h-.001c-.391 0-.705.314-.705.707-.001 1.031.402 2 1.133 2.732.564.562 1.27.928 2.038 1.066v2.529c0 .389.315.699.704.699.391 0 .705-.311.705-.699v-2.529c.766-.141 1.475-.504 2.035-1.066.732-.732 1.137-1.701 1.137-2.732v-.008c0-1.031-.404-1.998-1.137-2.726-.561-.565-1.27-.93-2.035-1.069v-4.875c1.016.305 1.76 1.238 1.76 2.343zm-3.169 2.346c-1.017-.3-1.761-1.232-1.761-2.346 0-1.105.744-2.037 1.761-2.343v4.689zm2.45 2.242c.465.465.72 1.084.719 1.746.001.656-.254 1.271-.719 1.736-.295.295-.656.494-1.041.611v-4.699c.385.117.746.315 1.041.606zm-1.746-21.113c-10.881 0-19.733 8.834-19.733 19.691 0 10.859 8.852 19.693 19.733 19.693s19.732-8.834 19.732-19.693c0-10.857-8.851-19.691-19.732-19.691zm0 37.98c-10.104 0-18.323-8.207-18.323-18.289 0-10.078 8.22-18.284 18.323-18.284 10.102 0 18.322 8.206 18.322 18.284 0 10.082-8.22 18.289-18.322 18.289zm0-35.266c-9.382 0-17.014 7.612-17.014 16.977 0 9.367 7.631 16.982 17.014 16.982s17.014-7.615 17.014-16.982c0-9.365-7.631-16.977-17.014-16.977zm0 32.553c-8.604 0-15.604-6.99-15.604-15.576 0-8.58 7-15.576 15.604-15.576s15.604 6.996 15.604 15.576c0 8.586-7 15.576-15.604 15.576z"/></svg>