<svg class="sub-nav__img" xmlns="http://www.w3.org/2000/svg" viewBox="0 -2.5 50 50" enable-background="new 0 -2.5 50 50"><path d="M43.153 38.718l-7.943-7.948 1.06-1.06-1.06-1.061-3.176 3.177-5.297-5.299 6.363-6.366c.848.301 1.734.453 2.644.453 2.099 0 4.07-.815 5.555-2.299 2.29-2.293 2.938-5.7 1.652-8.68l-.437-1.012-3.413 3.415-2.746.037.035-2.621 3.479-3.482-1.011-.438c-.994-.431-2.048-.647-3.133-.647-2.098 0-4.068.817-5.552 2.3-2.171 2.173-2.868 5.344-1.841 8.208l-6.363 6.367-9.004-9.008 1.061-1.06-5.822-5.827-3.179 3.177 5.825 5.829 1.059-1.059 9.002 9.008-6.36 6.366c-.852-.305-1.742-.459-2.654-.459-2.096 0-4.068.817-5.552 2.303-2.293 2.294-2.941 5.703-1.651 8.687l.438 1.011 3.479-3.48 2.62-.037-.037 2.752-3.414 3.416 1.013.438c.99.425 2.039.642 3.12.642 2.098 0 4.071-.816 5.552-2.302 2.168-2.171 2.866-5.337 1.847-8.198l6.365-6.371 5.297 5.299-3.179 3.182 1.06 1.057 1.061-1.057 7.94 7.948c.707.706 1.649 1.099 2.648 1.099 1.001 0 1.94-.393 2.648-1.099 1.461-1.462 1.46-3.841.001-5.301zm-36.008-29.674l1.059-1.061 3.705 3.71-1.059 1.06-3.705-3.709zm10.604 25.031c1.04 2.409.511 5.169-1.34 7.022-1.2 1.201-2.796 1.863-4.494 1.863-.488 0-.967-.056-1.435-.164l2.205-2.205.066-4.898-4.771.067-2.272 2.274c-.5-2.122.112-4.36 1.695-5.942 1.2-1.202 2.796-1.865 4.493-1.865.881 0 1.734.177 2.537.526l.468.201 15.199-15.206-.202-.468c-1.045-2.417-.519-5.176 1.338-7.033 1.199-1.2 2.796-1.862 4.491-1.862.494 0 .978.055 1.448.166l-2.273 2.272-.066 4.771 4.897-.066 2.204-2.206c.496 2.118-.119 4.353-1.698 5.933-1.2 1.2-2.797 1.862-4.494 1.862-.877 0-1.729-.176-2.53-.521l-.467-.2-15.202 15.211.203.468zm24.345 8.881c-.425.424-.989.657-1.589.657-.601 0-1.164-.233-1.588-.657l-7.944-7.947 3.178-3.18 7.943 7.948c.875.877.875 2.303 0 3.179z"/></svg>