<?xml version="1.0" encoding="UTF-8" standalone="no"?>
<svg width="275px" height="36px" viewBox="0 0 275 36" version="1.1" xmlns="http://www.w3.org/2000/svg" xmlns:xlink="http://www.w3.org/1999/xlink" xmlns:sketch="http://www.bohemiancoding.com/sketch/ns">
    <!-- Generator: Sketch 3.0.4 (8054) - http://www.bohemiancoding.com/sketch -->
    <title>Shape</title>
    <desc>Created with Sketch.</desc>
    <defs></defs>
    <g id="Page-1" stroke="none" stroke-width="1" fill="none" fill-rule="evenodd" sketch:type="MSPage">
        <path d="M52.422,11.089 C54.196,9.521 56.647,8.643 59.292,8.643 C61.934,8.643 64.378,9.517 66.175,11.104 C68.092,12.804 69.145,15.065 69.145,17.472 C69.145,19.892 68.089,22.155 66.17,23.844 L65.981,24.008 C69.2,23.757 74.317,22.612 76.869,18.094 C76.901,17.832 76.924,17.586 76.935,17.377 L76.942,17.282 L76.945,17.251 C76.878,13.262 75.07,9.507 71.85,6.67 C68.502,3.719 64.041,2.094 59.289,2.094 C54.535,2.094 50.101,3.694 46.801,6.598 L42.053,10.62 L47.509,15.247 L52.422,11.089 L52.422,11.089 Z M26.432,23.866 C24.658,25.432 22.21,26.308 19.569,26.308 C16.926,26.308 14.479,25.432 12.678,23.842 C10.765,22.154 9.711,19.895 9.711,17.483 C9.711,15.072 10.768,12.811 12.685,11.117 L12.874,10.953 C9.658,11.2 4.521,12.338 1.963,16.869 L1.906,17.474 L1.903,17.524 C1.904,21.56 3.715,25.395 7.002,28.283 C10.343,31.245 14.801,32.873 19.564,32.873 C24.329,32.873 28.762,31.271 32.049,28.362 L36.789,24.347 L31.331,19.719 L26.432,23.866 L26.432,23.866 Z M54.924,23.541 L54.876,23.502 C54.365,23.218 53.882,22.89 53.438,22.497 L47.945,17.835 L47.511,17.481 L39.422,10.622 L33.256,5.404 L33.139,5.3 L32.809,5.021 C31.167,3.703 26.437,0.681 20.287,0.412 L19.565,0.396 C18.35,0.396 17.155,0.498 15.985,0.689 C12.796,1.252 9.365,2.659 5.878,5.405 C4.68,6.464 3.661,7.636 2.828,8.89 C1.365,11.386 0.604,14.291 0.318,16.332 C4.874,7.706 17.966,8.129 23.489,11.181 C24.179,11.517 24.827,11.943 25.417,12.464 L31.341,17.485 L31.334,17.489 L39.41,24.338 L39.423,24.348 L39.427,24.344 L45.595,29.562 C45.844,29.786 46.1,29.999 46.359,30.203 C48.277,31.641 52.912,34.385 58.818,34.566 L59.035,34.568 L59.345,34.575 C60.203,34.57 61.051,34.516 61.887,34.421 C65.347,33.987 69.117,32.58 72.959,29.56 L73.139,29.417 C74.129,28.522 74.995,27.549 75.729,26.513 C77.374,23.93 78.213,20.799 78.516,18.631 C73.84,27.481 60.176,26.809 54.924,23.541 L54.924,23.541 Z M109.44,17.528 L102,8.55 L99.438,8.55 L99.438,26.884 L102.242,26.884 L102.242,12.998 L109.172,21.356 L109.711,21.356 L116.64,12.998 L116.64,26.884 L119.444,26.884 L119.444,8.55 L116.91,8.55 L109.44,17.528 L109.44,17.528 Z M128.906,26.884 L131.711,26.884 L131.711,8.55 L128.906,8.55 L128.906,26.884 L128.906,26.884 Z M155.3,22.462 L143.653,8.55 L141.173,8.55 L141.173,26.884 L143.978,26.884 L143.978,13.025 L155.65,26.883 L158.105,26.883 L158.105,8.55 L155.3,8.55 L155.3,22.462 L155.3,22.462 Z M165.491,11.03 L172.069,11.03 L172.069,26.884 L174.874,26.884 L174.874,11.03 L181.128,11.03 L181.128,8.55 L165.491,8.55 L165.491,11.03 L165.491,11.03 Z M191.319,8.55 L188.514,8.55 L188.514,26.884 L201.348,26.884 L201.348,24.43 L191.319,24.43 L191.319,8.55 L191.319,8.55 Z M208.628,26.884 L211.433,26.884 L211.433,8.55 L208.628,8.55 L208.628,26.884 L208.628,26.884 Z M235.024,22.462 L223.376,8.55 L220.896,8.55 L220.896,26.884 L223.701,26.884 L223.701,13.025 L235.375,26.883 L237.828,26.883 L237.828,8.55 L235.025,8.55 L235.025,22.462 L235.024,22.462 Z M262.065,8.981 L262.065,8.55 L259.153,8.55 L252.385,16.612 L250.094,16.612 L250.094,8.55 L247.289,8.55 L247.289,26.884 L250.094,26.884 L250.094,19.092 L252.358,19.092 L259.477,26.884 L262.819,26.884 L262.819,26.479 L254.784,17.852 L262.065,8.981 L262.065,8.981 Z M265.772,8.394 L267.112,8.394 L267.112,11.532 L267.456,11.532 L267.456,8.394 L268.714,8.394 L268.714,8.084 L265.773,8.084 L265.773,8.394 L265.772,8.394 Z M272.729,8.084 L271.213,9.923 L269.692,8.084 L269.376,8.084 L269.376,11.531 L269.722,11.531 L269.722,8.635 L271.173,10.389 L271.253,10.389 L272.704,8.635 L272.704,11.531 L273.048,11.531 L273.048,8.084 L272.729,8.084 L272.729,8.084 Z" id="Shape" fill="#FFFFFF" sketch:type="MSShapeGroup"></path>
    </g>
</svg>