<?xml version="1.0" encoding="UTF-8" standalone="no"?>
<svg width="80px" height="36px" viewBox="0 0 80 36" version="1.1" xmlns="http://www.w3.org/2000/svg" xmlns:xlink="http://www.w3.org/1999/xlink" xmlns:sketch="http://www.bohemiancoding.com/sketch/ns">
    <!-- Generator: Sketch 3.0.4 (8054) - http://www.bohemiancoding.com/sketch -->
    <title>Shape</title>
    <desc>Created with Sketch.</desc>
    <defs></defs>
    <g id="Page-1" stroke="none" stroke-width="1" fill="none" fill-rule="evenodd" sketch:type="MSPage">
        <path d="M52.42,11.089 C54.194,9.521 56.645,8.643 59.29,8.643 C61.932,8.643 64.376,9.517 66.173,11.104 C68.09,12.804 69.143,15.065 69.143,17.472 C69.143,19.892 68.087,22.155 66.168,23.844 L65.979,24.008 C69.198,23.757 74.315,22.612 76.867,18.094 C76.899,17.832 76.922,17.586 76.933,17.377 L76.94,17.282 L76.943,17.251 C76.876,13.262 75.068,9.507 71.848,6.67 C68.5,3.721 64.04,2.096 59.288,2.096 C54.534,2.096 50.1,3.696 46.8,6.6 L42.052,10.622 L47.508,15.249 L52.42,11.089 L52.42,11.089 Z M26.43,23.866 C24.656,25.432 22.208,26.308 19.567,26.308 C16.924,26.308 14.477,25.432 12.676,23.842 C10.763,22.154 9.709,19.895 9.709,17.483 C9.709,15.072 10.766,12.811 12.683,11.117 L12.872,10.953 C9.657,11.2 4.52,12.338 1.961,16.869 L1.904,17.474 L1.901,17.524 C1.903,21.561 3.713,25.396 7,28.283 C10.341,31.245 14.799,32.873 19.562,32.873 C24.327,32.873 28.76,31.271 32.047,28.362 L36.787,24.347 L31.329,19.719 L26.43,23.866 L26.43,23.866 Z M54.922,23.541 L54.874,23.502 C54.363,23.218 53.88,22.89 53.436,22.497 L47.943,17.835 L47.509,17.481 L39.42,10.622 L33.254,5.404 L33.137,5.3 L32.807,5.021 C31.165,3.703 26.435,0.681 20.285,0.412 L19.563,0.396 C18.348,0.396 17.153,0.498 15.983,0.689 C12.794,1.252 9.363,2.659 5.876,5.405 C4.678,6.464 3.659,7.636 2.826,8.89 C1.363,11.386 0.602,14.291 0.316,16.332 C4.872,7.706 17.964,8.129 23.487,11.181 C24.177,11.517 24.825,11.943 25.415,12.464 L31.339,17.485 L31.332,17.489 L39.408,24.338 L39.421,24.348 L39.425,24.344 L45.593,29.562 C45.842,29.786 46.098,29.999 46.357,30.203 C48.275,31.641 52.91,34.385 58.816,34.566 L59.033,34.568 L59.343,34.575 C60.201,34.57 61.049,34.516 61.885,34.421 C65.345,33.987 69.115,32.58 72.957,29.56 L73.137,29.417 C74.127,28.522 74.993,27.549 75.727,26.513 C77.372,23.93 78.211,20.799 78.514,18.631 C73.838,27.481 60.174,26.809 54.922,23.541 L54.922,23.541 Z" id="Shape" fill="#FFFFFF" sketch:type="MSShapeGroup"></path>
    </g>
</svg>