<svg xmlns="http://www.w3.org/2000/svg" width="221.771" height="32.75"><path fill="#B8DFCA" d="M67.461 6.187c-3.15-2.775-7.349-4.305-11.82-4.305-4.474 0-8.646 1.505-11.751 4.238l-4.468 3.786 5.134 4.354 4.624-3.915c1.669-1.476 3.975-2.301 6.465-2.301 2.486 0 4.786.822 6.477 2.315 1.804 1.6 2.795 3.728 2.795 5.993 0 2.277-.994 4.406-2.799 5.995l-.179.155c3.029-.237 7.845-1.313 10.246-5.566.031-.247.052-.477.062-.674l.007-.089.002-.03c-.064-3.753-1.764-7.287-4.795-9.956z"/><path fill="#40474F" d="M24.721 22.368c-1.67 1.475-3.973 2.299-6.458 2.299-2.487 0-4.789-.824-6.484-2.32-1.8-1.588-2.792-3.714-2.792-5.985 0-2.269.994-4.396 2.797-5.99l.179-.154c-3.026.232-7.861 1.303-10.268 5.566l-.054.569-.002.047c.001 3.799 1.705 7.407 4.798 10.125 3.144 2.786 7.339 4.319 11.821 4.319 4.484 0 8.656-1.508 11.75-4.244l4.461-3.778-5.136-4.356-4.612 3.902z"/><path fill="#28B67A" d="M51.534 22.063l-.045-.037c-.48-.268-.936-.577-1.354-.946l-5.169-4.387-.408-.333-7.612-6.454-5.803-4.911-.11-.098-.311-.264c-1.545-1.24-5.997-4.084-11.784-4.337l-.68-.017c-1.143 0-2.268.097-3.369.277-3.002.53-6.23 1.854-9.512 4.438-1.127.996-2.086 2.099-2.87 3.279-1.376 2.35-2.093 5.084-2.362 7.004 4.287-8.117 16.607-7.719 21.805-4.847.649.315 1.258.716 1.813 1.206l5.574 4.726-.006.005 7.6 6.445.012.009.004-.005 5.803 4.91c.235.211.476.411.72.604 1.805 1.354 6.167 3.935 11.724 4.106l.204.002.292.006c.808-.005 1.606-.056 2.393-.146 3.256-.408 6.803-1.731 10.419-4.575l.169-.133c.932-.842 1.748-1.758 2.438-2.733 1.547-2.431 2.337-5.378 2.622-7.418-4.397 8.332-17.255 7.699-22.197 4.624z"/><g fill="#28B67A"><path d="M105.643 12.645l-5.768 6.979h-.323l-5.768-6.979v11.515h-1.371v-13.714h1.25l6.05 7.321 6.03-7.321h1.271v13.714h-1.371v-11.515zM114.428 10.446h1.371v13.714h-1.371v-13.714zM124.589 12.645v11.515h-1.371v-13.714h1.229l9.721 11.557v-11.557h1.372v13.714h-1.21l-9.741-11.515zM147.896 11.677v12.483h-1.371v-12.483h-5.324v-1.23h11.697v1.23h-5.002z"/></g><path fill="#40474F" d="M158.56 24.16v-13.714h1.371v12.482h7.886v1.231h-9.257z"/><path fill="#40474F" d="M173.458 10.446h1.372v13.714h-1.372v-13.714z"/><path fill="#40474F" d="M183.619 12.645v11.515h-1.371v-13.714h1.23l9.721 11.557v-11.557h1.372v13.714h-1.21l-9.742-11.515z"/><path fill="#40474F" d="M201.985 10.446h1.371v6.354h1.896l5.807-6.354h1.453v.201l-6.07 6.817 6.655 6.515v.181h-1.694l-6.171-6.13h-1.875v6.13h-1.371v-13.714z"/><g fill="#40474F"><path d="M217.226 10.333v2.347h-.258v-2.347h-1v-.232h2.198v.232h-.94zM221.15 10.514l-1.085 1.312h-.06l-1.084-1.312v2.166h-.258v-2.579h.235l1.137 1.377 1.133-1.377h.239v2.579h-.257v-2.166z"/></g></svg>