<svg xmlns="http://www.w3.org/2000/svg" width="40" height="40"><path fill="#27B67B" d="M15.845 22.89c-2.118-.022-4.014 1.292-4.014 2.868 0 1.609 1.528 2.95 3.646 2.95 2.976 0 4.013-1.259 4.013-2.867 0-.195-.023-.385-.067-.569-.232-.91-1.056-1.362-2.206-2.162-.419-.134-.879-.214-1.372-.22zm4.155-21.397c-10.222 0-18.508 8.286-18.508 18.507 0 10.222 8.286 18.507 18.508 18.507s18.508-8.285 18.508-18.507c0-10.221-8.286-18.507-18.508-18.507zm.144 14.365c0 1.165-.646 2.168-1.559 2.88-.89.694-1.059.986-1.059 1.577 0 .505.954 1.362 1.452 1.716 1.457 1.029 1.928 1.987 1.928 3.584 0 1.992-1.928 3.972-5.418 3.972-3.062 0-5.646-1.245-5.646-3.236 0-2.023 2.356-3.974 5.418-3.974l.956-.009c-.419-.407-.75-.906-.75-1.523 0-.365.117-.717.28-1.029l-.512.015c-2.516 0-4.2-1.79-4.2-4.007 0-2.169 2.327-4.042 4.799-4.042h5.515l-1.233.893h-1.748c1.157.443 1.777 1.796 1.777 3.183zm10.773.384h-3.569v3.567h-.892v-3.567h-3.568v-.892h3.568v-3.568h.892v3.568h3.569v.892zm-15.773-3.68c-1.42-.042-2.373 1.386-2.127 3.252.245 1.864 1.596 3.411 3.016 3.455 1.421.042 2.374-1.436 2.128-3.302-.245-1.866-1.597-3.363-3.017-3.405z"/></svg>