<svg xmlns="http://www.w3.org/2000/svg" width="40" height="40"><path fill="#27B67B" d="M23.532 17.927c-1.515 0-2.191.833-2.569 1.417v.027h-.018l.018-.027v-1.215h-2.85c.038.804 0 8.573 0 8.573h2.85v-4.789c0-.256.02-.512.095-.694.207-.513.675-1.043 1.462-1.043 1.031 0 1.444.786 1.444 1.939v4.587h2.85v-4.916c-.001-2.635-1.406-3.859-3.282-3.859zm-9.846 8.775h2.851v-8.573h-2.851v8.573zm1.444-12.708c-.975 0-1.613.641-1.613 1.481 0 .823.62 1.481 1.576 1.481h.019c.993 0 1.612-.658 1.612-1.481-.02-.84-.62-1.481-1.594-1.481zm4.87-12.155c-10.03 0-18.161 8.132-18.161 18.161 0 10.03 8.131 18.161 18.161 18.161s18.161-8.131 18.161-18.161c0-10.029-8.131-18.161-18.161-18.161zm9.686 26.597c0 .751-.624 1.36-1.394 1.36h-16.082c-.77 0-1.394-.609-1.394-1.36v-16.269c0-.752.624-1.361 1.394-1.361h16.082c.77 0 1.394.609 1.394 1.361v16.269z"/></svg>