<svg xmlns="http://www.w3.org/2000/svg" width="40" height="40"><path fill="#27B67B" d="M20 1.77c-10.068 0-18.23 8.162-18.23 18.23s8.162 18.23 18.23 18.23c10.069 0 18.231-8.162 18.231-18.23s-8.162-18.23-18.231-18.23zm7.814 18.639c-1.68 6.809-12.944 9.697-18.127 2.628 1.984 1.896 5.441 2.062 7.634-.204-1.285.188-2.221-1.074-.642-1.756-1.42.155-2.21-.601-2.534-1.242.333-.349.7-.512 1.411-.558-1.555-.368-2.129-1.129-2.306-2.053.433-.104.972-.191 1.268-.152-1.362-.712-1.836-1.784-1.761-2.59 2.434.904 3.984 1.631 5.28 2.326.462.247.978.691 1.56 1.255.74-1.958 1.655-3.978 3.221-4.979-.025.228-.147.438-.309.611.445-.404 1.022-.683 1.608-.763-.066.441-.701.688-1.084.833.29-.09 1.832-.778 1.999-.386.199.445-1.062.651-1.277.729l-.479.177c1.954-.195 3.819 1.418 4.363 3.42l.112.472c.715.267 2.01-.013 2.427-.27-.302.714-1.086 1.24-2.242 1.336.558.231 1.607.359 2.333.236-.457.494-1.197.94-2.455.93z"/></svg>