<svg xmlns="http://www.w3.org/2000/svg" width="314" height="314"><path opacity=".2" fill="#CDCCCC" enable-background="new" d="M156.611 1.731c85.824 0 155.395 69.574 155.395 155.396 0 85.824-69.57 155.398-155.395 155.398-85.826 0-155.398-69.574-155.398-155.398 0-85.821 69.572-155.396 155.398-155.396z"/><path opacity=".1" fill="#B8B8B8" enable-background="new" d="M156.611 1.731c85.824 0 155.395 69.57 155.395 155.396 0 85.828-69.57 155.398-155.395 155.398"/><path fill="#27B67B" d="M95.861 111.003h-10.125c-1.244 0-2.25 1.008-2.25 2.25v40.5c0 1.244 1.006 2.25 2.25 2.25h10.125c1.242 0 2.25-1.006 2.25-2.25v-7.875h19.48c4.146 6.279 11.221 10.125 18.77 10.125s14.627-3.846 18.773-10.125h1.477c4.342 0 7.875 3.533 7.875 7.875v9.941l-10.096 60.564.012.336c-.367.02-.74.033-1.148.033-4.127 0-6.062-.938-8.305-2.023-2.395-1.162-5.107-2.477-10.268-2.477-5.158 0-7.873 1.314-10.268 2.477-2.24 1.086-4.178 2.023-8.303 2.023-1.244 0-2.25 1.008-2.25 2.25 0 1.244 1.006 2.25 2.25 2.25 5.158 0 7.873-1.312 10.268-2.475 2.24-1.086 4.176-2.025 8.303-2.025s6.062.939 8.305 2.025c2.395 1.162 5.107 2.475 10.268 2.475 5.154 0 7.871-1.314 10.262-2.475 2.24-1.086 4.174-2.025 8.297-2.025s6.057.939 8.297 2.025c2.395 1.16 5.111 2.475 10.27 2.475 5.154 0 7.867-1.312 10.258-2.473 2.24-1.088 4.174-2.027 8.301-2.027 4.117 0 6.051.939 8.287 2.025 2.396 1.16 5.104 2.475 10.262 2.475 1.244 0 2.25-1.006 2.25-2.25 0-1.242-1.006-2.25-2.25-2.25-4.121 0-6.055-.938-8.297-2.023-2.391-1.162-5.102-2.477-10.252-2.477-4.908 0-7.598 1.191-9.91 2.309l-9.791-58.742v-9.941c0-17.988-14.637-32.625-32.625-32.625h-1.477c-3.732-5.646-9.84-9.301-16.523-9.982v-15.893h7.875c4.031 0 7.312-3.279 7.312-7.312 0-4.031-3.281-7.312-7.312-7.312h-20.25c-4.033 0-7.312 3.281-7.312 7.312 0 4.033 3.279 7.312 7.312 7.312h7.875v15.893c-6.686.682-12.789 4.336-16.52 9.982h-19.48v-7.875c-.002-1.242-1.009-2.25-2.252-2.25zm30.375-20.25c-1.553 0-2.812-1.26-2.812-2.812 0-1.551 1.26-2.812 2.812-2.812h20.25c1.551 0 2.812 1.262 2.812 2.812 0 1.553-1.262 2.812-2.812 2.812h-20.25zm-32.625 60.75h-5.625v-36h5.625v36zm101.137 72.641c-1.178.297-2.555.484-4.369.484-4.127 0-6.064-.938-8.305-2.025-2.396-1.16-5.107-2.475-10.262-2.475s-7.865 1.314-10.262 2.475c-.834.406-1.625.791-2.51 1.113l9.598-57.588h16.441l9.669 58.016zm-75.904-98.516c.803 0 1.545-.428 1.947-1.123 3.217-5.551 9.182-9.002 15.57-9.002s12.357 3.451 15.574 9.002c.402.695 1.145 1.123 1.945 1.123h2.73c15.508 0 28.125 12.617 28.125 28.125v7.875h-15.75v-7.875c0-6.822-5.555-12.375-12.375-12.375h-2.73c-.801 0-1.543.43-1.945 1.123-3.217 5.553-9.186 9.002-15.574 9.002s-12.354-3.449-15.57-9.002c-.402-.693-1.145-1.123-1.947-1.123h-20.733v-15.75h20.733z"/></svg>