<svg xmlns="http://www.w3.org/2000/svg" width="314" height="314"><path opacity=".2" fill="#CDCCCC" enable-background="new" d="M156.611 1.731c85.824 0 155.395 69.574 155.395 155.396 0 85.824-69.57 155.398-155.395 155.398-85.826 0-155.398-69.574-155.398-155.398 0-85.821 69.572-155.396 155.398-155.396z"/><path opacity=".1" fill="#B8B8B8" enable-background="new" d="M156.611 1.731c85.824 0 155.395 69.57 155.395 155.396 0 85.828-69.57 155.398-155.395 155.398"/><path fill="#27B67B" d="M208.586 135.079l-20.25-15.188c-.682-.512-1.596-.596-2.355-.213s-1.244 1.16-1.244 2.012v7.875h-38.26c-9.615 0-17.438 7.822-17.438 17.438s7.822 17.438 17.438 17.438h20.26c1.551 0 2.812 1.262 2.812 2.812 0 1.553-1.262 2.812-2.812 2.812h-38.25v-7.875c0-.852-.48-1.629-1.244-2.012-.76-.383-1.674-.299-2.355.213l-20.25 15.188c-.566.424-.9 1.092-.9 1.799 0 .709.334 1.377.9 1.801l20.25 15.188c.398.297.873.449 1.35.449.342 0 .689-.078 1.006-.236.764-.383 1.244-1.16 1.244-2.014v-7.875h38.264c9.615 0 17.438-7.822 17.438-17.438s-7.822-17.438-17.438-17.438h-20.264c-1.553 0-2.812-1.26-2.812-2.812 0-1.551 1.26-2.812 2.812-2.812h38.25v7.875c0 .854.484 1.631 1.244 2.014.76.377 1.674.297 2.355-.213l20.25-15.188c.566-.424.9-1.092.9-1.801-.001-.707-.335-1.375-.901-1.799zm-19.35 12.486v-5.625c0-1.242-1.006-2.25-2.25-2.25h-40.5c-4.031 0-7.312 3.281-7.312 7.312 0 4.033 3.281 7.312 7.312 7.312h20.264c7.133 0 12.938 5.807 12.938 12.938 0 7.133-5.805 12.938-12.938 12.938h-40.514c-1.242 0-2.25 1.008-2.25 2.25v5.625l-14.25-10.688 14.25-10.688v5.625c0 1.244 1.008 2.25 2.25 2.25h40.5c4.035 0 7.312-3.279 7.312-7.312 0-4.031-3.277-7.312-7.312-7.312h-20.26c-7.135 0-12.938-5.805-12.938-12.938 0-7.131 5.803-12.938 12.938-12.938h40.51c1.244 0 2.25-1.006 2.25-2.25v-5.625l14.252 10.688-14.252 10.688z"/></svg>