<svg xmlns="http://www.w3.org/2000/svg" width="314" height="314"><path opacity=".2" fill="#CDCCCC" enable-background="new" d="M156.949 1.731c85.822 0 155.396 69.574 155.396 155.396 0 85.824-69.574 155.398-155.396 155.398-85.826 0-155.398-69.574-155.398-155.398 0-85.821 69.572-155.396 155.398-155.396z"/><path opacity=".1" fill="#B8B8B8" enable-background="new" d="M156.949 1.731c85.822 0 155.396 69.57 155.396 155.396 0 85.828-69.574 155.398-155.396 155.398"/><g fill="#27B67B"><path d="M104.074 167.253c0 .91.547 1.732 1.389 2.08.277.113.57.17.861.17.584 0 1.16-.229 1.59-.658l10.125-10.125c.422-.422.66-.994.66-1.592v-10.125c0-4.342 3.533-7.875 7.875-7.875h58.5v7.875c0 .854.48 1.631 1.242 2.014.764.383 1.678.299 2.355-.213l20.25-15.188c.568-.424.902-1.092.902-1.801 0-.707-.334-1.375-.902-1.799l-20.25-15.188c-.68-.512-1.594-.596-2.355-.213s-1.242 1.16-1.242 2.012v7.875h-58.5c-12.406 0-22.5 10.096-22.5 22.5v20.251zm4.5-20.25c0-9.924 8.074-18 18-18h60.75c1.242 0 2.25-1.006 2.25-2.25v-5.625l14.248 10.688-14.248 10.688v-5.625c0-1.242-1.008-2.25-2.25-2.25h-60.75c-6.822 0-12.375 5.551-12.375 12.375v9.193l-5.625 5.625v-14.819zM104.975 184.241l20.25 15.188c.395.297.871.449 1.35.449.342 0 .688-.078 1.006-.236.762-.383 1.244-1.16 1.244-2.014v-7.875h58.5c12.404 0 22.5-10.094 22.5-22.5v-20.25c0-.908-.549-1.73-1.389-2.078-.842-.348-1.809-.158-2.453.488l-10.125 10.125c-.422.422-.658.992-.658 1.59v10.125c0 4.342-3.533 7.875-7.875 7.875h-58.5v-7.875c0-.852-.482-1.629-1.244-2.012-.76-.381-1.674-.299-2.355.213l-20.25 15.188c-.566.424-.9 1.092-.9 1.799-.002.708.332 1.376.899 1.8zm19.349-12.488v5.625c0 1.244 1.006 2.25 2.25 2.25h60.75c6.822 0 12.375-5.549 12.375-12.375v-9.193l5.625-5.625v14.818c0 9.926-8.076 18-18 18h-60.75c-1.244 0-2.25 1.008-2.25 2.25v5.625l-14.25-10.688 14.25-10.687z"/></g></svg>