<svg xmlns="http://www.w3.org/2000/svg" width="314" height="314"><circle opacity=".2" fill="#CDCCCC" enable-background="new" cx="156.635" cy="157.129" r="155.397"/><path opacity=".1" fill="#B8B8B8" enable-background="new" d="M156.635 1.731c85.824 0 155.396 69.57 155.396 155.396 0 85.828-69.572 155.398-155.396 155.398"/><g fill="#27B67B"><path d="M131.32 215.065h81c1.244 0 2.25-1.006 2.25-2.25v-81c0-1.242-1.006-2.25-2.25-2.25h-28.125v-28.125c0-1.242-1.006-2.25-2.25-2.25h-81c-1.244 0-2.25 1.008-2.25 2.25v81c0 1.244 1.006 2.25 2.25 2.25h28.125v28.125c0 1.245 1.006 2.25 2.25 2.25zm38.25-85.5h-38.25c-1.244 0-2.25 1.008-2.25 2.25v28.125h-15.75v-46.125h56.25v15.75zm40.5 4.5v76.5h-76.5v-76.5h76.5zm-106.875 46.125v-76.5h76.5v25.875h-5.625v-18c0-1.242-1.006-2.25-2.25-2.25h-60.75c-1.244 0-2.25 1.008-2.25 2.25v50.625c0 1.244 1.006 2.25 2.25 2.25h18v15.75h-25.875zM139.195 141.94v50.625c0 1.244 1.006 2.25 2.25 2.25h60.75c1.244 0 2.25-1.006 2.25-2.25v-50.625c0-1.242-1.006-2.25-2.25-2.25h-60.75c-1.244 0-2.25 1.008-2.25 2.25zm4.5 2.25h56.25v46.125h-56.25v-46.125z"/></g></svg>