<svg xmlns="http://www.w3.org/2000/svg" width="314" height="314"><circle opacity=".2" fill="#CDCCCC" enable-background="new" cx="156.635" cy="157.129" r="155.397"/><path opacity=".1" fill="#B8B8B8" enable-background="new" d="M156.635 1.731c85.824 0 155.396 69.57 155.396 155.396 0 85.828-69.572 155.398-155.396 155.398"/><g fill="#27B67B"><path d="M75.633 189.753h28.125v18c0 .309.064.6.176.867.109.268.273.514.484.725l20.25 20.25c.211.211.457.373.725.482.266.113.559.176.865.176h81c1.244 0 2.25-1.006 2.25-2.25v-38.25h28.125c1.244 0 2.25-1.006 2.25-2.25v-81c0-6.824-5.551-12.375-12.375-12.375h-18v-7.875c0-1.242-1.006-2.25-2.25-2.25h-101.25c-1.244 0-2.25 1.008-2.25 2.25v7.875h-18c-6.824 0-12.375 5.551-12.375 12.375v81c0 1.244 1.006 2.25 2.25 2.25zm2.25-83.25c0-4.342 3.533-7.875 7.875-7.875h141.75c4.342 0 7.875 3.533 7.875 7.875v78.75h-25.875v-15.75h7.875c1.244 0 2.25-1.006 2.25-2.25v-20.25c0-1.242-1.006-2.25-2.25-2.25h-121.5c-1.244 0-2.25 1.008-2.25 2.25v20.25c0 1.244 1.006 2.25 2.25 2.25h7.875v15.75h-25.875v-78.75zm30.375-18h96.75v5.625h-96.75v-5.625zm96.75 101.25v36h-76.5v-18c0-1.242-1.006-2.25-2.25-2.25h-18v-46.125h96.75v30.375zm-81 32.818l-12.568-12.568h12.568v12.568zm83.25-67.693h-101.25c-1.244 0-2.25 1.008-2.25 2.25v7.875h-5.625v-15.75h117v15.75h-5.625v-7.875c0-1.242-1.006-2.25-2.25-2.25zM187.008 205.503h-40.5c-1.244 0-2.25 1.008-2.25 2.25 0 1.244 1.006 2.25 2.25 2.25h40.5c1.244 0 2.25-1.006 2.25-2.25 0-1.242-1.006-2.25-2.25-2.25zM187.008 195.378h-40.5c-1.244 0-2.25 1.008-2.25 2.25 0 1.244 1.006 2.25 2.25 2.25h40.5c1.244 0 2.25-1.006 2.25-2.25 0-1.242-1.006-2.25-2.25-2.25zM187.008 185.253h-60.75c-1.244 0-2.25 1.008-2.25 2.25 0 1.244 1.006 2.25 2.25 2.25h60.75c1.244 0 2.25-1.006 2.25-2.25 0-1.242-1.006-2.25-2.25-2.25zM187.008 175.128h-60.75c-1.244 0-2.25 1.008-2.25 2.25 0 1.244 1.006 2.25 2.25 2.25h60.75c1.244 0 2.25-1.006 2.25-2.25 0-1.242-1.006-2.25-2.25-2.25zM187.008 165.003h-60.75c-1.244 0-2.25 1.008-2.25 2.25 0 1.244 1.006 2.25 2.25 2.25h60.75c1.244 0 2.25-1.006 2.25-2.25 0-1.242-1.006-2.25-2.25-2.25z"/></g></svg>