<svg xmlns="http://www.w3.org/2000/svg" width="314" height="314"><circle opacity=".2" fill="#CDCCCC" enable-background="new" cx="156.397" cy="157.129" r="155.397"/><path opacity=".1" fill="#B8B8B8" enable-background="new" d="M156.397 1.731c85.824 0 155.396 69.57 155.396 155.396 0 85.828-69.572 155.398-155.396 155.398"/><path fill="#27B67B" d="M187.847 154.712v-29.023c0-17.371-14.08-31.453-31.443-31.453-17.371 0-31.449 14.082-31.449 31.453v29.023h-16.936v65.309h96.76v-65.309h-16.932zm-58.057-29.024c0-14.676 11.941-26.615 26.613-26.615 14.67 0 26.604 11.939 26.604 26.615v29.023h-53.217v-29.023zm70.152 89.497h-87.084v-55.637h87.084v55.637z"/></svg>