<svg xmlns="http://www.w3.org/2000/svg" width="314" height="314"><path opacity=".2" fill="#CDCCCC" enable-background="new" d="M156.611 1.731c85.824 0 155.395 69.574 155.395 155.396 0 85.824-69.57 155.398-155.395 155.398-85.826 0-155.398-69.574-155.398-155.398 0-85.821 69.572-155.396 155.398-155.396z"/><path opacity=".1" fill="#B8B8B8" enable-background="new" d="M156.611 1.731c85.824 0 155.395 69.57 155.395 155.396 0 85.828-69.57 155.398-155.395 155.398"/><g fill="#27B67B"><path d="M164.486 147.003c0 1.244 1.008 2.25 2.25 2.25 1.244 0 2.25-1.006 2.25-2.25 0-6.053-4.371-11.098-10.125-12.158v-8.092c0-1.242-1.006-2.25-2.25-2.25s-2.25 1.008-2.25 2.25v8.092c-5.754 1.061-10.125 6.105-10.125 12.158 0 6.055 4.371 11.1 10.125 12.16v15.6c-1.236-.367-2.383-1.006-3.318-1.943-1.486-1.486-2.305-3.463-2.303-5.564 0-1.242-1.006-2.252-2.248-2.252h-.002c-1.242 0-2.25 1.008-2.25 2.248-.002 3.305 1.283 6.412 3.619 8.75 1.797 1.797 4.053 2.957 6.502 3.406v8.096c0 1.244 1.006 2.25 2.25 2.25s2.25-1.006 2.25-2.25v-8.096c2.449-.447 4.707-1.607 6.504-3.406 2.334-2.336 3.621-5.441 3.621-8.74v-.012c0-3.305-1.287-6.408-3.621-8.748-1.797-1.797-4.055-2.957-6.504-3.402v-15.604c3.239.976 5.625 3.952 5.625 7.507zm-15.75 0c0-3.555 2.383-6.531 5.625-7.508v15.018c-3.242-.977-5.625-3.953-5.625-7.51zm13.448 14.682c1.486 1.486 2.303 3.465 2.303 5.566v.004c0 2.102-.816 4.078-2.303 5.566-.939.938-2.088 1.576-3.322 1.943v-15.023c1.234.367 2.382 1.004 3.322 1.944zM156.611 94.128c-34.74 0-63 28.262-63 63 0 34.74 28.26 63 63 63 34.738 0 63-28.26 63-63 0-34.738-28.261-63-63-63zm0 121.5c-32.256 0-58.5-26.24-58.5-58.5 0-32.258 26.244-58.5 58.5-58.5s58.5 26.242 58.5 58.5c0 32.26-26.244 58.5-58.5 58.5zM156.611 102.808c-29.953 0-54.322 24.367-54.322 54.32s24.369 54.322 54.322 54.322 54.32-24.369 54.32-54.322-24.367-54.32-54.32-54.32zm0 104.142c-27.471 0-49.822-22.352-49.822-49.822 0-27.469 22.352-49.82 49.822-49.82s49.82 22.352 49.82 49.82c.001 27.471-22.349 49.822-49.82 49.822z"/></g></svg>