<svg xmlns="http://www.w3.org/2000/svg" width="314" height="314"><circle opacity=".2" fill="#CDCCCC" enable-background="new" cx="157.398" cy="157.129" r="155.397"/><path opacity=".1" fill="#B8B8B8" enable-background="new" d="M157.398 1.731c85.824 0 155.396 69.57 155.396 155.396 0 85.828-69.572 155.398-155.396 155.398"/><g fill="#27B67B"><path d="M121.029 180.19c-6.822 0-12.375 5.551-12.375 12.375 0 6.826 5.553 12.375 12.375 12.375 6.824 0 12.375-5.549 12.375-12.375 0-2.932-1.029-5.629-2.742-7.752l15.369-21.615c1.627.785 3.447 1.242 5.373 1.242 4.633 0 8.672-2.561 10.795-6.336l27.99 10.617c-.346 1.139-.535 2.344-.535 3.594 0 6.826 5.555 12.375 12.375 12.375 6.824 0 12.375-5.549 12.375-12.375 0-4.311-2.219-8.109-5.572-10.326l19.801-38.641c1.191.381 2.457.592 3.771.592 6.824 0 12.375-5.549 12.375-12.375 0-6.824-5.551-12.375-12.375-12.375-6.82 0-12.375 5.551-12.375 12.375 0 3.898 1.818 7.375 4.645 9.646l-19.994 39.021c-.857-.188-1.74-.293-2.65-.293-3.951 0-7.471 1.871-9.738 4.764l-28.65-10.867c.084-.58.141-1.168.141-1.771 0-6.824-5.553-12.375-12.377-12.375-6.822 0-12.375 5.551-12.375 12.375 0 3.275 1.289 6.25 3.373 8.465l-15.174 21.344c-1.826-1.062-3.941-1.684-6.201-1.684zm103.5-68.625c0-4.342 3.533-7.875 7.875-7.875s7.875 3.533 7.875 7.875-3.533 7.875-7.875 7.875-7.875-3.533-7.875-7.875zm-22.5 52.875c4.342 0 7.875 3.533 7.875 7.875s-3.533 7.875-7.875 7.875-7.875-3.533-7.875-7.875 3.534-7.875 7.875-7.875zm-50.625-20.25c4.342 0 7.877 3.533 7.877 7.875s-3.535 7.875-7.877 7.875-7.875-3.533-7.875-7.875 3.533-7.875 7.875-7.875zm-30.375 56.25c-4.342 0-7.875-3.533-7.875-7.875s3.533-7.875 7.875-7.875 7.875 3.533 7.875 7.875-3.533 7.875-7.875 7.875zM90.654 225.19h151.875c1.244 0 2.25-1.006 2.25-2.25v-10.125c0-1.242-1.006-2.25-2.25-2.25h-139.5v-129.375c0-1.242-1.006-2.25-2.25-2.25h-10.125c-1.242 0-2.25 1.008-2.25 2.25v141.75c0 1.245 1.008 2.25 2.25 2.25zm2.25-141.75h5.625v129.375c0 1.244 1.008 2.25 2.25 2.25h139.5v5.625h-147.375v-137.25z"/></g></svg>