<svg xmlns="http://www.w3.org/2000/svg" width="314" height="314"><circle opacity=".2" fill="#CDCCCC" enable-background="new" cx="157.343" cy="157.129" r="155.397"/><path opacity=".1" fill="#B8B8B8" enable-background="new" d="M157.343 1.731c85.824 0 155.396 69.57 155.396 155.396 0 85.828-69.572 155.398-155.396 155.398"/><g fill="#27B67B"><path d="M84.218 101.44v83.25c0 6.822 5.553 12.375 12.375 12.375h48.375v13.5h-12.938c-4.031 0-7.312 3.281-7.312 7.312 0 4.033 3.281 7.312 7.312 7.312h50.627c4.029 0 7.312-3.279 7.312-7.312 0-4.031-3.283-7.312-7.312-7.312h-12.937v-13.5h48.375c6.82 0 12.375-5.553 12.375-12.375v-83.25c0-6.822-5.555-12.375-12.375-12.375h-121.502c-6.822 0-12.375 5.553-12.375 12.375zm65.25 95.625h5.625v13.5h-5.625v-13.5zm33.189 18c1.551 0 2.812 1.262 2.812 2.812 0 1.553-1.262 2.812-2.812 2.812h-50.627c-1.551 0-2.812-1.26-2.812-2.812 0-1.551 1.262-2.812 2.812-2.812h50.627zm-17.437-4.5h-5.625v-13.5h5.625v13.5zm60.75-109.125v83.25c0 4.342-3.533 7.875-7.875 7.875h-121.50200000000001c-4.342 0-7.875-3.533-7.875-7.875v-83.25c0-4.342 3.533-7.875 7.875-7.875h121.502c4.342 0 7.875 3.534 7.875 7.875zM94.343 101.44v70.875c0 1.244 1.008 2.25 2.25 2.25h121.502c1.244 0 2.25-1.006 2.25-2.25v-70.875c0-1.242-1.006-2.25-2.25-2.25h-121.502c-1.242 0-2.25 1.008-2.25 2.25zm4.5 2.25h117.002v66.375h-117.002v-66.375z"/></g></svg>