<svg xmlns="http://www.w3.org/2000/svg" width="314" height="314"><circle opacity=".2" fill="#CDCCCC" enable-background="new" cx="157.343" cy="157.129" r="155.397"/><path opacity=".1" fill="#B8B8B8" enable-background="new" d="M157.343 1.731c85.824 0 155.396 69.57 155.396 155.396 0 85.828-69.572 155.398-155.396 155.398"/><g fill="#27B67B"><path d="M238.394 104.253h-141.75c-1.244 0-2.25 1.008-2.25 2.25v7.875h-7.875c-1.244 0-2.25 1.008-2.25 2.25v7.875h-7.875c-1.244 0-2.25 1.008-2.25 2.25v81c0 1.244 1.006 2.25 2.25 2.25h141.75c1.244 0 2.25-1.006 2.25-2.25v-7.875h7.875c1.244 0 2.25-1.006 2.25-2.25v-7.875h7.875c1.244 0 2.25-1.006 2.25-2.25v-81c0-1.242-1.006-2.25-2.25-2.25zm-22.5 101.25h-137.25v-76.5h5.625v68.625c0 1.244 1.006 2.25 2.25 2.25h129.375v5.625zm10.125-10.125h-137.25v-76.5h5.625v68.625c0 1.244 1.006 2.25 2.25 2.25h129.375v5.625zm10.125-10.125h-137.25v-76.5h137.25v76.5zM106.769 179.628h40.5c1.244 0 2.25-1.006 2.25-2.25 0-1.242-1.006-2.25-2.25-2.25h-28.342c-.926-5.02-4.889-8.982-9.908-9.908v-36.432c5.02-.928 8.982-4.889 9.908-9.91h28.342c1.244 0 2.25-1.006 2.25-2.25 0-1.242-1.006-2.25-2.25-2.25h-40.5c-1.244 0-2.25 1.008-2.25 2.25v60.75c0 1.244 1.005 2.25 2.25 2.25zm7.507-4.5h-5.258v-5.258c2.524.76 4.499 2.734 5.258 5.258zm-5.257-56.25h5.258c-.76 2.525-2.734 4.498-5.258 5.26v-5.26zM216.108 175.128h-28.34c-1.244 0-2.25 1.008-2.25 2.25 0 1.244 1.006 2.25 2.25 2.25h40.5c1.244 0 2.25-1.006 2.25-2.25v-60.75c0-1.242-1.006-2.25-2.25-2.25h-40.5c-1.244 0-2.25 1.008-2.25 2.25 0 1.244 1.006 2.25 2.25 2.25h28.34c.928 5.021 4.889 8.982 9.91 9.91v36.432c-5.021.926-8.982 4.888-9.91 9.908zm9.911 0h-5.258c.76-2.523 2.732-4.498 5.258-5.258v5.258zm-5.258-56.25h5.258v5.26c-2.526-.762-4.498-2.735-5.258-5.26zM159.644 157.128c0-1.242-1.006-2.25-2.25-2.25s-2.25 1.008-2.25 2.25c0 6.055 4.375 11.098 10.125 12.16v8.09c0 1.244 1.006 2.25 2.25 2.25s2.25-1.006 2.25-2.25v-8.09c5.75-1.062 10.125-6.105 10.125-12.16 0-6.053-4.375-11.096-10.125-12.158v-15.6c3.24.977 5.625 3.953 5.625 7.508 0 1.244 1.006 2.25 2.25 2.25s2.25-1.006 2.25-2.25c0-6.053-4.375-11.096-10.125-12.158v-8.092c0-1.242-1.006-2.25-2.25-2.25s-2.25 1.008-2.25 2.25v8.092c-5.75 1.062-10.125 6.105-10.125 12.158 0 6.055 4.375 11.098 10.125 12.16v15.6c-3.243-.977-5.625-3.953-5.625-7.51zm15.75 0c0 3.557-2.385 6.533-5.625 7.51v-15.018c3.24.977 5.625 3.953 5.625 7.508zm-15.75-20.25c0-3.555 2.383-6.531 5.625-7.508v15.018c-3.243-.977-5.625-3.953-5.625-7.51z"/></g></svg>