<svg xmlns="http://www.w3.org/2000/svg" width="313" height="313"><path opacity=".2" fill="#CDCCCC" enable-background="new" d="M156.612.731c85.824 0 155.395 69.574 155.395 155.396 0 85.824-69.57 155.398-155.395 155.398-85.826 0-155.398-69.574-155.398-155.398 0-85.821 69.572-155.396 155.398-155.396z"/><path opacity=".1" fill="#B8B8B8" enable-background="new" d="M156.612.731c85.824 0 155.395 69.57 155.395 155.396 0 85.828-69.57 155.398-155.395 155.398"/><g fill="#27B67B"><path d="M199.362 95.378c0-6.824-5.555-12.375-12.375-12.375h-60.75c-6.822 0-12.375 5.551-12.375 12.375v121.5c0 6.826 5.553 12.375 12.375 12.375h60.75c6.82 0 12.375-5.549 12.375-12.375v-121.5zm-4.5 121.5c0 4.342-3.533 7.875-7.875 7.875h-60.75c-4.342 0-7.875-3.533-7.875-7.875v-121.5c0-4.342 3.533-7.875 7.875-7.875h60.75c4.342 0 7.875 3.533 7.875 7.875v121.5zM156.612 204.503c-4.033 0-7.312 3.281-7.312 7.312 0 4.033 3.279 7.312 7.312 7.312 4.031 0 7.312-3.279 7.312-7.312.001-4.031-3.28-7.312-7.312-7.312zm0 10.125c-1.553 0-2.812-1.26-2.812-2.812 0-1.551 1.26-2.812 2.812-2.812 1.551 0 2.812 1.262 2.812 2.812.001 1.552-1.261 2.812-2.812 2.812zM186.987 103.253h-60.75c-1.244 0-2.25 1.008-2.25 2.25v91.125c0 1.244 1.006 2.25 2.25 2.25h60.75c1.244 0 2.25-1.006 2.25-2.25v-91.125c0-1.242-1.006-2.25-2.25-2.25zm-2.25 91.125h-56.25v-86.625h56.25v86.625zM146.487 97.628h20.25c1.244 0 2.25-1.006 2.25-2.25 0-1.242-1.006-2.25-2.25-2.25h-20.25c-1.244 0-2.25 1.008-2.25 2.25 0 1.244 1.006 2.25 2.25 2.25z"/></g></svg>