<?xml version="1.0" encoding="UTF-8" standalone="no"?>
<svg width="22px" height="22px" viewBox="0 0 22 22" version="1.1" xmlns="http://www.w3.org/2000/svg" xmlns:xlink="http://www.w3.org/1999/xlink" xmlns:sketch="http://www.bohemiancoding.com/sketch/ns">
    <!-- Generator: Sketch 3.0.4 (8054) - http://www.bohemiancoding.com/sketch -->
    <title>get-in-touch</title>
    <desc>Created with Sketch.</desc>
    <defs></defs>
    <g id="Page-1" stroke="none" stroke-width="1" fill="none" fill-rule="evenodd" sketch:type="MSPage">
        <path d="M19.9525,1.00890625 C19.6995,0.75590625 19.3665,0.62890625 19.0345,0.62890625 C18.7015,0.62890625 18.3685,0.75590625 18.1155,1.00890625 L14.2935,4.82290625 L14.2935,4.09990625 L0.4375,4.09990625 L0.4375,20.5209062 L16.8915,20.5209062 L16.8915,6.69190625 L16.0945,6.69190625 L19.9515,2.84190625 C20.4605,2.33590625 20.4605,1.51390625 19.9525,1.00890625 L19.9525,1.00890625 Z M16.0255,19.6559063 L1.3035,19.6559063 L1.3035,4.96290625 L14.1515,4.96290625 L7.3655,11.7339062 L7.3655,13.6039062 L9.1675,13.6039062 L16.0255,6.76090625 L16.0255,19.6559063 L16.0255,19.6559063 Z M19.3395,2.23090625 L8.8095,12.7419062 L8.2315,12.7419062 L8.2315,12.0939062 L18.7275,1.61890625 C18.8375,1.50890625 18.9665,1.49290625 19.0345,1.49290625 C19.1005,1.49290625 19.2295,1.50990625 19.3405,1.61990625 C19.4515,1.72990625 19.4685,1.85790625 19.4685,1.92590625 C19.4675,1.99190625 19.4515,2.11990625 19.3395,2.23090625 L19.3395,2.23090625 Z" id="get-in-touch" fill="#FFFFFF" sketch:type="MSShapeGroup"></path>
    </g>
</svg>