<?xml version="1.0" encoding="UTF-8" standalone="no"?>
<svg width="22px" height="22px" viewBox="0 0 22 22" version="1.1" xmlns="http://www.w3.org/2000/svg" xmlns:xlink="http://www.w3.org/1999/xlink" xmlns:sketch="http://www.bohemiancoding.com/sketch/ns">
    <!-- Generator: Sketch 3.0.4 (8054) - http://www.bohemiancoding.com/sketch -->
    <title>home</title>
    <desc>Created with Sketch.</desc>
    <defs></defs>
    <g id="Page-1" stroke="none" stroke-width="1" fill="none" fill-rule="evenodd" sketch:type="MSPage">
        <path d="M10.824,0 L6.501,4.327 L6.501,2.596 L3.044,2.596 L3.044,7.788 L0,10.836 L0.611,11.448 L10.824,1.224 L21.035,11.448 L21.645,10.836 L10.824,0 L10.824,0 Z M5.637,5.192 L3.908,6.922 L3.908,3.461 L5.637,3.461 L5.637,5.192 L5.637,5.192 Z M3.044,11.249 L3.044,21.635 L9.094,21.635 L9.094,15.577 L12.552,15.577 L12.552,21.635 L18.602,21.635 L18.602,11.249 L10.824,3.461 L3.044,11.249 L3.044,11.249 Z M17.738,20.77 L13.416,20.77 L13.416,14.712 L8.23,14.712 L8.23,20.77 L3.909,20.77 L3.909,11.608 L10.824,4.685 L17.738,11.608 L17.738,20.77 L17.738,20.77 Z" id="home" fill="#FFFFFF" sketch:type="MSShapeGroup"></path>
    </g>
</svg>