<?xml version="1.0" encoding="UTF-8" standalone="no"?>
<svg width="22px" height="22px" viewBox="0 0 22 22" version="1.1" xmlns="http://www.w3.org/2000/svg" xmlns:xlink="http://www.w3.org/1999/xlink" xmlns:sketch="http://www.bohemiancoding.com/sketch/ns">
    <!-- Generator: Sketch 3.0.4 (8054) - http://www.bohemiancoding.com/sketch -->
    <title>industries</title>
    <desc>Created with Sketch.</desc>
    <defs></defs>
    <g id="Page-1" stroke="none" stroke-width="1" fill="none" fill-rule="evenodd" sketch:type="MSPage">
        <path d="M12.115,0.865 L12.115,2.974 L12.764,3.141 C13.497,3.331 14.199,3.626 14.846,4.019 L15.426,4.372 L15.906,3.892 L16.935,2.863 L18.77,4.699 L17.707,5.763 L17.238,6.231 L17.568,6.805 C17.934,7.443 18.208,8.133 18.38,8.857 L18.54,9.52 L20.767,9.52 L20.767,12.115 L18.491,12.115 L18.315,12.752 C18.126,13.436 17.841,14.094 17.47,14.703 L17.118,15.285 L17.598,15.766 L18.769,16.938 L16.934,18.774 L15.727,17.567 L15.258,17.098 L14.684,17.428 C14.088,17.77 13.442,18.032 12.762,18.207 L12.113,18.375 L12.113,20.77 L9.516,20.77 L9.516,18.375 L8.867,18.207 C8.188,18.031 7.541,17.769 6.945,17.428 L6.371,17.098 L5.902,17.567 L4.696,18.774 L2.862,16.937 L4.034,15.765 L4.514,15.284 L4.161,14.702 C3.79,14.093 3.506,13.434 3.316,12.751 L3.141,12.114 L0.865,12.114 L0.865,9.519 L3.093,9.519 L3.252,8.856 C3.425,8.132 3.699,7.442 4.064,6.804 L4.394,6.23 L3.925,5.762 L2.862,4.698 L4.698,2.862 L5.727,3.891 L6.206,4.371 L6.787,4.018 C7.433,3.625 8.135,3.33 8.869,3.14 L9.517,2.973 L9.517,0.865 L12.115,0.865 L12.115,0.865 Z M10.817,14.712 C12.964,14.712 14.711,12.964 14.711,10.818 C14.711,8.67 12.965,6.923 10.817,6.923 C8.669,6.923 6.922,8.67 6.922,10.817 C6.922,12.963 8.67,14.712 10.817,14.712 L10.817,14.712 Z M12.98,1.77635684e-15 L8.653,1.77635684e-15 L8.653,2.304 C7.827,2.517 7.05,2.848 6.338,3.279 L4.698,1.638 L1.638,4.698 L3.314,6.374 C2.91,7.077 2.604,7.844 2.41,8.653 L0,8.653 L0,12.979 L2.483,12.979 C2.697,13.752 3.014,14.481 3.421,15.153 L1.638,16.937 L4.698,19.998 L6.516,18.178 C7.178,18.559 7.895,18.852 8.653,19.045 L8.653,21.635 L12.98,21.635 L12.98,19.045 C13.738,18.852 14.455,18.559 15.118,18.178 L16.936,19.996 L19.996,16.937 L18.212,15.153 C18.619,14.481 18.937,13.753 19.15,12.979 L21.633,12.979 L21.633,8.653 L19.223,8.653 C19.029,7.843 18.723,7.077 18.319,6.374 L19.996,4.698 L16.936,1.638 L15.294,3.279 C14.583,2.848 13.806,2.517 12.98,2.303 L12.98,0 L12.98,1.77635684e-15 Z M10.817,13.846 C9.143,13.846 7.788,12.489 7.788,10.817 C7.788,9.143 9.143,7.787 10.817,7.787 C12.49,7.787 13.845,9.142 13.845,10.817 C13.845,12.489 12.49,13.846 10.817,13.846 L10.817,13.846 Z" id="industries" fill="#FFFFFF" sketch:type="MSShapeGroup"></path>
    </g>
</svg>