<?xml version="1.0" encoding="UTF-8" standalone="no"?>
<svg width="20px" height="23px" viewBox="0 0 20 23" version="1.1" xmlns="http://www.w3.org/2000/svg" xmlns:xlink="http://www.w3.org/1999/xlink" xmlns:sketch="http://www.bohemiancoding.com/sketch/ns">
    <!-- Generator: Sketch 3.0.4 (8054) - http://www.bohemiancoding.com/sketch -->
    <title>solutions</title>
    <desc>Created with Sketch.</desc>
    <defs></defs>
    <g id="Page-1" stroke="none" stroke-width="1" fill="none" fill-rule="evenodd" sketch:type="MSPage">
        <path d="M9.951,0 C4.455,0 0,2.131 0,4.76 L0,17.739 C0,20.368 4.455,22.499 9.951,22.499 C15.447,22.499 19.903,20.368 19.903,17.739 L19.903,4.76 C19.903,2.131 15.447,3.55271368e-15 9.951,3.55271368e-15 L9.951,0 Z M9.951,0.864 C15.305,0.864 19.038,2.916 19.038,4.76 C19.038,6.602 15.306,8.653 9.951,8.653 C4.596,8.653 0.865,6.602 0.865,4.76 C0.865,2.917 4.596,0.864 9.951,0.864 L9.951,0.864 Z M19.038,16.874 L19.038,17.739 C19.038,19.581 15.306,21.634 9.951,21.634 C4.596,21.634 0.865,19.581 0.865,17.739 L0.865,15.353 C2.418,17.015 5.9,18.173 9.951,18.173 C14.001,18.173 17.484,17.015 19.038,15.353 L19.038,16.874 L19.038,16.874 Z M19.038,13.413 C19.038,15.255 15.306,17.306 9.951,17.306 C4.596,17.306 0.865,15.255 0.865,13.413 L0.865,11.027 C2.418,12.687 5.9,13.844 9.951,13.844 C14.001,13.844 17.484,12.687 19.038,11.027 L19.038,13.413 L19.038,13.413 Z M19.038,9.086 C19.038,10.928 15.306,12.98 9.951,12.98 C4.596,12.98 0.865,10.928 0.865,9.086 L0.865,6.699 C2.418,8.359 5.9,9.517 9.951,9.517 C14.001,9.517 17.484,8.359 19.038,6.699 L19.038,9.086 L19.038,9.086 Z" id="solutions" fill="#FFFFFF" sketch:type="MSShapeGroup"></path>
    </g>
</svg>