<?xml version="1.0" encoding="UTF-8" standalone="no"?>
<svg width="26px" height="25px" viewBox="0 0 26 25" version="1.1" xmlns="http://www.w3.org/2000/svg" xmlns:xlink="http://www.w3.org/1999/xlink" xmlns:sketch="http://www.bohemiancoding.com/sketch/ns">
    <!-- Generator: Sketch 3.0.4 (8054) - http://www.bohemiancoding.com/sketch -->
    <title>who-we-are</title>
    <desc>Created with Sketch.</desc>
    <defs></defs>
    <g id="Page-1" stroke="none" stroke-width="1" fill="none" fill-rule="evenodd" sketch:type="MSPage">
        <path d="M6.22275078,5.314 L6.22275078,9.109 C6.22275078,10.767 6.97975078,14.124 9.10475078,15.829 L2.43275078,18.977 C2.43275078,18.977 0.914750781,19.654 0.914750781,20.496 L0.914750781,22.775 C0.914750781,23.614 1.59475078,24.294 2.43275078,24.294 L23.6897508,24.294 C24.5287508,24.294 25.2087508,23.614 25.2087508,22.775 L25.2087508,20.496 C25.2087508,19.603 23.6897508,18.977 23.6897508,18.977 L17.0797508,15.842 C19.1837508,14.186 19.8957508,10.933 19.8957508,9.109 L19.8957508,5.314 C19.8957508,2.799 16.4157508,0 13.0617508,0 C9.70775078,3.55271368e-15 6.22275078,2.799 6.22275078,5.314 Z M13.0617508,1.215 C15.8487508,1.215 18.6807508,3.599 18.6807508,5.314 L18.6807508,9.109 C18.6807508,10.688 18.0537508,13.529 16.3267508,14.888 C15.9967508,15.148 15.8247508,15.56 15.8717508,15.978 C15.9187508,16.396 16.1787508,16.759 16.5587508,16.94 L23.1687508,20.075 L23.2267508,20.099 C23.4827508,20.205 23.8647508,20.447 23.9937508,20.601 L23.9937508,22.775 C23.9937508,22.942 23.8567508,23.078 23.6897508,23.078 L2.43275078,23.078 C2.26675078,23.078 2.12975078,22.942 2.12975078,22.775 L2.12975078,20.624 C2.26275078,20.472 2.62875078,20.223 2.95075078,20.076 L9.62275078,16.928 C10.0017508,16.749 10.2617508,16.389 10.3107508,15.973 C10.3607508,15.556 10.1917508,15.145 9.86475078,14.882 C8.19075078,13.539 7.43775078,10.697 7.43775078,9.11 L7.43775078,5.314 C7.43775078,3.599 10.2717508,1.215 13.0617508,1.215 L13.0617508,1.215 Z" id="who-we-are" fill="#FFFFFF" sketch:type="MSShapeGroup"></path>
    </g>
</svg>