<svg xmlns="http://www.w3.org/2000/svg" width="314" height="314"><path opacity=".2" fill="#CDCCCC" enable-background="new" d="M156.611 1.731c85.824 0 155.395 69.574 155.395 155.396 0 85.824-69.57 155.398-155.395 155.398-85.826 0-155.398-69.574-155.398-155.398 0-85.821 69.572-155.396 155.398-155.396z"/><path opacity=".1" fill="#B8B8B8" enable-background="new" d="M156.611 1.731c85.824 0 155.395 69.57 155.395 155.396 0 85.828-69.57 155.398-155.395 155.398"/><path fill="#27B67B" d="M219.611 212.815v-2.25c0-17.988-14.637-32.625-32.625-32.625-9.926 0-18-8.074-18-18v-1.479c6.092-4.029 10.125-10.936 10.125-18.771v-20.25c0-12.404-10.094-22.5-22.5-22.5s-22.5 10.096-22.5 22.5v20.25c0 7.836 4.031 14.742 10.125 18.771v1.479c0 9.926-8.076 18-18 18-17.99 0-32.625 14.637-32.625 32.625v2.25h126zm-81-73.125v-20.25c0-9.924 8.074-18 18-18 9.924 0 18 8.076 18 18v20.25c0 9.926-8.076 18-18 18-9.925 0-18-8.074-18-18zm-12.375 42.75c12.139 0 22.041-9.674 22.459-21.715 2.467.932 5.127 1.465 7.916 1.465 2.787 0 5.449-.533 7.914-1.465.418 12.041 10.32 21.715 22.461 21.715 14.748 0 26.887 11.416 28.033 25.875h-116.818c1.149-14.459 13.285-25.875 28.035-25.875z"/></svg>