<svg xmlns="http://www.w3.org/2000/svg" width="313" height="313"><circle opacity=".2" fill="#CDCCCC" enable-background="new" cx="156.601" cy="156.398" r="155.397"/><path opacity=".1" fill="#B8B8B8" enable-background="new" d="M156.601 1.001c85.826 0 155.398 69.57 155.398 155.396 0 85.828-69.572 155.398-155.398 155.398"/><path fill="#27B67B" d="M152.101 204.212v2.812c0 7.109 18.682 7.312 20.812 7.312 1.676 0 13.549-.143 18.562-3.648 5.016 3.506 16.889 3.648 18.562 3.648 2.133 0 20.812-.203 20.812-7.312v-9c0-6.68-16.496-7.262-20.25-7.307v-2.818c0-1.906-1.367-3.305-3.375-4.346v-52.467c0-1.242-1.006-2.25-2.25-2.25h-7.875v-18c0-1.242-1.006-2.25-2.25-2.25h-7.875v-4.5c0-.723-.348-1.4-.936-1.824-.586-.422-1.342-.543-2.025-.309l-7.164 2.389v-3.631c0-.691-.32-1.346-.865-1.771-.545-.428-1.262-.584-1.93-.41l-40.609 10.152c-.156-.033-.303-.096-.471-.096h-39.373c-.285 0-.562.055-.812.152-5.906.934-10.438 6.061-10.438 12.223v70.875c0 7.17 4.734 12.375 11.25 12.375h58.5zm74.25 2.576c-1.023 1.145-7.055 3.049-16.312 3.049-9.256 0-15.289-1.904-16.312-3.049v-2.707c.881-.053 1.859-.131 2.887-.236.525.133 1.061.256 1.602.367 5.113 1.061 10.713 1.125 11.824 1.125 1.457 0 10.645-.098 16.312-2.43v3.881zm-52.875-10.125v-3.8810000000000002l.537.195c4.627 1.732 11.209 2.129 14.279 2.213.711.018 1.232.021 1.496.021l.695-.006c.482-.006 1.137-.021 1.932-.057.826-.035 1.797-.092 2.848-.178 2.295-.189 4.979-.523 7.463-1.123.824-.199 1.611-.438 2.367-.699.342-.117.688-.234 1.008-.367v3.8810000000000002c-.355.4-1.357.891-2.859 1.361l-.516.16c-1.479.424-3.416.811-5.713 1.094-1.025.125-2.113.23-3.287.303l-.391.031-.871.033-.988.025-1.059.027-.629.014-.117-.002-.445-.01c-1.484-.014-2.865-.082-4.17-.18-3.74-.287-6.711-.865-8.719-1.496-1.502-.468-2.506-.959-2.861-1.359zm29.25-7.484c-2.838.818-7.268 1.533-12.938 1.533-8.645 0-14.475-1.66-16.043-2.812 1.568-1.15 7.398-2.812 16.043-2.812 5.67 0 10.1.717 12.938 1.535 1.49.428 2.566.883 3.107 1.277-.541.396-1.617.851-3.107 1.279zm-33.561 8.845c.195.627.576 1.184 1.064 1.688.381.398.83.764 1.352 1.096-4.078-.086-7.457-.525-9.984-1.096-2.363-.531-4.012-1.16-4.727-1.688 1.312-.963 5.654-2.275 12.105-2.678v1.553c.001.399.079.77.19 1.125zm-12.564 6.188v-1.305c1.348.555 2.893.977 4.488 1.305 5.113 1.061 10.713 1.125 11.824 1.125 1.113 0 6.711-.064 11.826-1.125l.723-.154c1.633.107 2.979.143 3.764.15v2.58c-1.023 1.145-7.055 3.049-16.312 3.049-9.256 0-15.289-1.904-16.312-3.049v-2.576zm53.437-3.375c-.703 0-1.355-.025-2.021-.047 1.182-.748 2.049-1.652 2.396-2.766.111-.355.188-.727.188-1.125v-1.674c8.324.072 13.949 1.674 15.482 2.799-1.568 1.153-7.4 2.813-16.045 2.813zm-17.437-87.75v5.625h-5.625v-5.625h5.625zm-10.125-5.877v11.501999999999999h-5.625v-9.627l5.625-1.875zm-10.125 11.502h-60.473l60.473-15.117v15.117zm-77.625-5.625h21.104l-22.773 5.693-.154.072c-.15.051-.285.121-.422.201-.117.07-.232.139-.338.229-.109.096-.199.207-.287.32-.086.113-.172.225-.234.35-.064.125-.105.26-.146.393-.039.146-.076.293-.088.447l-.035.17.055.271.012.275.078.18.137.303c.074.146.168.283.275.41l.209.225c.131.117.281.211.438.295l.24.129c.256.1.523.162.805.162h99.002v5.625h-97.878c-4.342 0-7.875-3.531-7.875-7.875 0-4.34 3.533-7.875 7.875-7.875zm-7.875 78.75v-61.336c2.141 1.771 4.887 2.836 7.875 2.836h108v48.615c-5.381-1.299-11.746-1.365-12.938-1.365-2.131 0-20.812.205-20.812 7.312v2.945c-6.117.369-16.875 1.785-16.875 7.18v1.688h-58.5c-4.663 0-6.75-3.953-6.75-7.875z"/></svg>