<svg xmlns="http://www.w3.org/2000/svg" width="314" height="314"><path opacity=".2" fill="#CDCCCC" enable-background="new" d="M156.926 1.001c85.822 0 155.396 69.574 155.396 155.396 0 85.824-69.574 155.398-155.396 155.398-85.826 0-155.398-69.574-155.398-155.398-.001-85.822 69.572-155.396 155.398-155.396z"/><path opacity=".1" fill="#B8B8B8" enable-background="new" d="M156.926 1.001c85.822 0 155.396 69.57 155.396 155.396 0 85.828-69.574 155.398-155.396 155.398"/><g fill="#27B67B"><path d="M186.432 139.36c-6.07-10.512-17.389-17.043-29.537-17.043-5.949 0-11.83 1.582-17.012 4.57-16.268 9.396-21.863 30.277-12.469 46.549 6.07 10.512 17.389 17.043 29.541 17.043 5.947 0 11.828-1.582 17.008-4.57 7.881-4.553 13.52-11.9 15.875-20.691 2.357-8.793 1.146-17.975-3.406-25.858zm-.94 24.694c-2.047 7.631-6.939 14.008-13.779 17.959-4.496 2.594-9.598 3.967-14.758 3.967-10.551 0-20.377-5.668-25.643-14.793-8.154-14.123-3.299-32.248 10.82-40.402 4.496-2.594 9.602-3.967 14.762-3.967 10.547 0 20.373 5.668 25.643 14.793 3.949 6.841 5 14.812 2.955 22.443zM213.994 123.448c-.621-1.08-2.002-1.445-3.074-.824l-18.373 10.607c-1.076.623-1.445 1.998-.824 3.074.418.723 1.174 1.125 1.951 1.125.381 0 .77-.096 1.123-.301l18.373-10.607c1.078-.623 1.447-1.998.824-3.074zM99.852 189.349c.418.723 1.172 1.125 1.951 1.125.379 0 .768-.098 1.123-.301l18.373-10.609c1.076-.621 1.445-1.996.824-3.074-.623-1.078-1.998-1.445-3.074-.824l-18.373 10.609c-1.078.621-1.447 1.997-.824 3.074zM178.141 121.901c.777 0 1.535-.404 1.949-1.125l5.301-9.189c.621-1.076.252-2.451-.824-3.074-1.078-.623-2.453-.25-3.074.824l-5.299 9.189c-.623 1.076-.254 2.451.824 3.074.355.204.742.301 1.123.301zM133.754 192.024l-5.299 9.186c-.621 1.076-.252 2.451.824 3.072.355.205.742.303 1.123.303.777 0 1.535-.404 1.951-1.125l5.299-9.186c.623-1.076.254-2.451-.824-3.074-1.08-.623-2.453-.252-3.074.824zM135.711 121.901c.383 0 .77-.098 1.123-.301 1.076-.623 1.445-2 .82-3.074l-5.309-9.186c-.621-1.078-1.996-1.445-3.07-.824-1.078.623-1.447 2-.822 3.074l5.309 9.186c.414.723 1.172 1.125 1.949 1.125zM177.012 191.2c-1.076.623-1.445 2-.82 3.074l5.309 9.186c.414.723 1.17 1.125 1.949 1.125.381 0 .768-.098 1.121-.303 1.078-.621 1.447-1.998.822-3.072l-5.309-9.186c-.619-1.08-2-1.443-3.072-.824zM114.492 158.649c1.242 0 2.25-1.008 2.25-2.25s-1.008-2.25-2.25-2.25l-10.609.004c-1.244 0-2.25 1.008-2.25 2.25s1.006 2.25 2.25 2.25l10.609-.004zM209.971 154.147l-10.611.006c-1.244 0-2.25 1.008-2.25 2.25s1.006 2.25 2.25 2.25l10.611-.006c1.244 0 2.25-1.008 2.25-2.25s-1.006-2.25-2.25-2.25zM159.176 113.964v-21.217c0-1.242-1.008-2.25-2.25-2.25-1.244 0-2.25 1.008-2.25 2.25v21.217c0 1.244 1.006 2.25 2.25 2.25 1.242 0 2.25-1.006 2.25-2.25zM154.676 198.831v21.217c0 1.244 1.006 2.25 2.25 2.25 1.242 0 2.25-1.006 2.25-2.25v-21.217c0-1.242-1.008-2.25-2.25-2.25-1.244 0-2.25 1.008-2.25 2.25zM121.303 133.231l-18.377-10.607c-1.08-.621-2.453-.25-3.074.824-.623 1.076-.254 2.451.824 3.074l18.377 10.607c.355.205.742.301 1.123.301.777 0 1.533-.404 1.951-1.125.621-1.076.252-2.451-.824-3.074zM213.176 186.274l-18.379-10.609c-1.08-.621-2.451-.25-3.074.824-.621 1.078-.252 2.453.824 3.074l18.379 10.609c.355.203.742.301 1.121.301.779 0 1.535-.404 1.953-1.125.621-1.076.252-2.452-.824-3.074z"/></g></svg>