<svg xmlns="http://www.w3.org/2000/svg" width="314" height="314"><path opacity=".2" fill="#CDCCCC" enable-background="new" d="M156.926 1.731c85.822 0 155.396 69.574 155.396 155.396 0 85.824-69.574 155.398-155.396 155.398-85.826 0-155.398-69.574-155.398-155.398-.001-85.821 69.572-155.396 155.398-155.396z"/><path opacity=".1" fill="#B8B8B8" enable-background="new" d="M156.926 1.731c85.822 0 155.396 69.57 155.396 155.396 0 85.828-69.574 155.398-155.396 155.398"/><g fill="#27B67B"><path d="M237.926 174.565c1.242 0 2.25-1.006 2.25-2.25v-10.125c0-1.242-1.008-2.25-2.25-2.25h-48.592c-1.062-5.75-6.105-10.125-12.158-10.125h-7.875v-5.625h28.125c6.822 0 12.375-5.553 12.375-12.375v-40.5c0-6.822-5.553-12.375-12.375-12.375h-81c-6.824 0-12.375 5.553-12.375 12.375v40.5c0 6.822 5.551 12.375 12.375 12.375h28.125v5.625h-7.875c-6.055 0-11.098 4.375-12.16 10.125h-48.59c-1.244 0-2.25 1.008-2.25 2.25v10.125c0 1.244 1.006 2.25 2.25 2.25h7.875v25.875h-7.875c-1.244 0-2.25 1.008-2.25 2.25v10.125c0 1.244 1.006 2.25 2.25 2.25h7.875v18c0 1.244 1.006 2.25 2.25 2.25h10.125c.852 0 1.629-.48 2.012-1.242l9.504-19.008h98.469l9.502 19.008c.383.762 1.16 1.242 2.014 1.242h10.125c1.242 0 2.25-1.006 2.25-2.25v-18h7.875c1.242 0 2.25-1.006 2.25-2.25v-10.125c0-1.242-1.008-2.25-2.25-2.25h-7.875v-25.875h7.874zm-121.5-34.875c-4.342 0-7.875-3.533-7.875-7.875v-40.5c0-4.342 3.533-7.875 7.875-7.875h81c4.342 0 7.875 3.533 7.875 7.875v40.5c0 4.342-3.533 7.875-7.875 7.875h-81zm32.625 4.5h15.75v5.625h-15.75v-5.625zm-12.375 10.125h40.5c3.555 0 6.531 2.385 7.508 5.625h-55.516c.975-3.24 3.951-5.625 7.508-5.625zm-58.5 15.75v-5.625h157.5v5.625h-157.5zm10.125 4.5h66.375v25.875h-66.375v-25.875zm6.484 56.25h-6.484v-15.75h14.359l-7.875 15.75zm130.766 0h-6.484l-7.875-15.75h14.359v15.75zm10.125-25.875v5.625h-157.5v-5.625h157.5zm-10.125-4.5h-66.375v-25.875h66.375v25.875zM146.801 180.19h-50.625c-1.244 0-2.25 1.008-2.25 2.25v10.125c0 1.244 1.006 2.25 2.25 2.25h50.625c1.242 0 2.25-1.006 2.25-2.25v-10.125c0-1.242-1.008-2.25-2.25-2.25zm-2.25 10.125h-46.125v-5.625h46.125v5.625zM167.051 194.815c1.242 0 2.25-1.006 2.25-2.25v-10.125c0-1.242-1.008-2.25-2.25-2.25-1.244 0-2.25 1.008-2.25 2.25v10.125c0 1.245 1.006 2.25 2.25 2.25zM177.176 194.815c1.242 0 2.25-1.006 2.25-2.25v-10.125c0-1.242-1.008-2.25-2.25-2.25-1.244 0-2.25 1.008-2.25 2.25v10.125c0 1.245 1.006 2.25 2.25 2.25zM187.301 194.815c1.242 0 2.25-1.006 2.25-2.25v-10.125c0-1.242-1.008-2.25-2.25-2.25-1.244 0-2.25 1.008-2.25 2.25v10.125c0 1.245 1.006 2.25 2.25 2.25zM199.676 131.815v-40.5c0-1.242-1.008-2.25-2.25-2.25h-81c-1.244 0-2.25 1.008-2.25 2.25v40.5c0 1.244 1.006 2.25 2.25 2.25h81c1.242 0 2.25-1.005 2.25-2.25zm-4.5-2.25h-76.5v-36h76.5v36zM197.426 194.815h20.25c1.242 0 2.25-1.006 2.25-2.25v-10.125c0-1.242-1.008-2.25-2.25-2.25h-20.25c-1.244 0-2.25 1.008-2.25 2.25v10.125c0 1.245 1.006 2.25 2.25 2.25zm2.25-10.125h15.75v5.625h-15.75v-5.625z"/></g></svg>