<svg xmlns="http://www.w3.org/2000/svg" width="50" height="50"><path fill="#27B67B" d="M24.414 4.5v12.104c-4.413.291-7.914 3.814-7.914 8.115v12.638c0 4.49 3.813 8.143 8.5 8.143 4.688 0 8.5-3.652 8.5-8.143v-12.638c0-4.3-3.5-7.824-7.914-8.115v-12.104h-1.172zm.586 19.659c-.404 0-.732-.315-.732-.703s.328-.702.732-.702.732.315.732.702-.328.703-.732.703zm-7.328.56c0-3.681 2.976-6.704 6.742-6.992v4.001c-.763.238-1.319.918-1.319 1.728 0 .81.557 1.49 1.319 1.728v1.501h-6.742v-1.966zm14.655 12.638c0 3.871-3.286 7.02-7.327 7.02-4.04 0-7.328-3.148-7.328-7.02v-9.549h14.655v9.549zm0-12.638v1.966h-6.741v-1.501c.764-.238 1.319-.918 1.319-1.728 0-.81-.556-1.489-1.319-1.728v-4.001c3.768.289 6.741 3.312 6.741 6.992z"/></svg>