<svg xmlns="http://www.w3.org/2000/svg" width="50" height="50"><path fill="#27B67B" d="M38.554 13.317l-17.011-6.318c-.16-.06-.339-.039-.482.053l-9.72 6.319c-.153.099-.246.27-.246.452v22.841c0 .23.146.436.365.51l17.01 5.832.175.029c.098 0 .193-.025.278-.076l9.72-5.832c.163-.098.263-.273.263-.463v-22.841c-.001-.226-.141-.427-.352-.506zm-.729 22.472l-3.78-1.891v-16.672h-.3l4.08-2.448v21.011zm-9.242-16.727l-6.688-2.293v-8.488l15.229 5.657-8.541 5.124zm4.382-1.37v16.378l-3.779 5.67v-19.779l3.779-2.269zm-12.15-9.192v7.899l-7.956-2.728 7.956-5.171zm-8.64 6.079l15.931 5.462v21.697l-15.931-5.461v-21.698zm17.172 26.866l4.343-6.516 3.554 1.777-7.897 4.739z"/></svg>