<svg xmlns="http://www.w3.org/2000/svg" width="50" height="50"><path fill="#27B67B" d="M44.506 18.839h-21.674v-2.156c0-.341-.276-.616-.619-.616h-2.786c-.343 0-.619.275-.619.616v2.156h-4.954c-.266 0-.503.169-.587.421l-2.706 8.074-5.344 2.658c-.209.105-.342.318-.342.553v8.316c0 .34.277.615.619.615h5.014c.293 1.574 1.68 2.773 3.346 2.773s3.055-1.199 3.347-2.773h18.386c.293 1.574 1.681 2.773 3.347 2.773s3.054-1.199 3.347-2.773h2.227c.342 0 .619-.275.619-.615v-19.406c-.002-.341-.279-.616-.621-.616zm-30.652 22.179c-1.195 0-2.167-.967-2.167-2.156s.972-2.156 2.167-2.156 2.168.967 2.168 2.156-.973 2.156-2.168 2.156zm4.954-2.774h-1.608c-.292-1.574-1.681-2.771-3.347-2.771s-3.053 1.197-3.346 2.771h-4.394v-7.318l5.1-2.537h7.595v9.855zm0-11.09h-6.882l2.375-7.083h4.507v7.083zm1.239-9.855h1.547v1.54h-1.547v-1.54zm18.886 23.719c-1.194 0-2.167-.967-2.167-2.156s.973-2.156 2.167-2.156c1.195 0 2.167.967 2.167 2.156s-.972 2.156-2.167 2.156zm4.954-2.774h-1.607c-.293-1.574-1.681-2.771-3.347-2.771s-3.054 1.197-3.347 2.771h-15.539v-18.173h23.84v18.173zm-16.1-7.084h2.167v2.156c0 .34.276.615.619.615h2.786c.343 0 .619-.275.619-.615v-2.156h2.168c.342 0 .619-.275.619-.615v-2.773c0-.342-.277-.617-.619-.617h-2.168v-2.155c0-.34-.276-.616-.619-.616h-2.786c-.343 0-.619.276-.619.616v2.155h-2.167c-.343 0-.619.275-.619.617v2.773c0 .34.276.615.619.615zm.619-2.771h2.167c.343 0 .619-.275.619-.617v-2.155h1.548v2.155c0 .342.277.617.619.617h2.168v1.539h-2.168c-.342 0-.619.275-.619.617v2.156h-1.548v-2.156c0-.342-.276-.617-.619-.617h-2.167v-1.539zm-14.552 2.771h2.787c.342 0 .619-.275.619-.615 0-.342-.277-.617-.619-.617h-2.787c-.342 0-.619.275-.619.617-.001.34.277.615.619.615zm11.146-16.634c.158 0 .316-.06.438-.181l2.787-2.772c.242-.24.242-.63 0-.871s-.634-.241-.876 0l-2.786 2.772c-.242.241-.242.63 0 .871.121.121.279.181.437.181zm-8.797-.18c.121.121.279.181.438.181s.316-.06.438-.181c.242-.241.242-.63 0-.871l-2.787-2.772c-.241-.241-.633-.241-.875 0-.242.24-.242.63 0 .871l2.786 2.772zm4.617.18c.342 0 .619-.276.619-.616v-5.544c0-.341-.277-.616-.619-.616s-.619.275-.619.616v5.544c0 .34.278.616.619.616z"/></svg>