<svg xmlns="http://www.w3.org/2000/svg" width="50" height="50"><path fill="#27B67B" d="M10.23 10.231v29.539h29.54v-29.539h-29.54zm28.308 28.308h-27.077v-20.31h27.077v20.31zm0-21.54h-27.077v-5.537h27.077v5.537zm-17.23-3.692h-1.848v1.846h1.848v-1.846zm9.23 0h-1.846v1.846h1.846v-1.846zm-9.914 18.756h1.288v-9.651h-1.1l-.028.197c-.221 1.498-.933 1.522-2.366 1.575l-.223.007v1.044h2.429v6.828zm7.386-.959c-1.159 0-1.993-.784-2.027-1.906l-.007-.221h-1.287l.006.235c.041 1.824 1.347 3.048 3.249 3.048 1.919 0 3.421-1.47 3.421-3.344 0-2.039-1.332-3.406-3.315-3.406-.572 0-1.16.187-1.625.499l.438-2.257h4.058v-1.223h-5.018l-.979 5.227h1.113l.068-.105c.39-.607 1.099-.984 1.854-.984 1.228 0 2.119.907 2.119 2.159-.002 1.131-.712 2.278-2.068 2.278z"/></svg>